<?xml version="1.0" encoding="UTF-8" standalone="no"?>
<svg
   xmlns:dc="http://purl.org/dc/elements/1.1/"
   xmlns:cc="http://creativecommons.org/ns#"
   xmlns:rdf="http://www.w3.org/1999/02/22-rdf-syntax-ns#"
   xmlns:svg="http://www.w3.org/2000/svg"
   xmlns="http://www.w3.org/2000/svg"
   xmlns:sodipodi="http://sodipodi.sourceforge.net/DTD/sodipodi-0.dtd"
   xmlns:inkscape="http://www.inkscape.org/namespaces/inkscape"
   style="font-style:normal;font-weight:normal;font-size:12px;font-family:Dialog;color-interpolation:auto;fill:#000000;fill-opacity:1;stroke:#000000;stroke-width:1;stroke-linecap:square;stroke-linejoin:miter;stroke-miterlimit:10;stroke-dasharray:none;stroke-dashoffset:0;stroke-opacity:1;color-rendering:auto;image-rendering:auto;shape-rendering:auto;text-rendering:auto"
   width="840"
   height="630"
   version="1.1"
   id="svg6719"
   sodipodi:docname="LennardJones.svg"
   inkscape:version="0.92.2 (5c3e80d, 2017-08-06)">
  <metadata
     id="metadata6723">
    <rdf:RDF>
      <cc:Work
         rdf:about="">
        <dc:format>image/svg+xml</dc:format>
        <dc:type
           rdf:resource="http://purl.org/dc/dcmitype/StillImage" />
        <dc:title></dc:title>
      </cc:Work>
    </rdf:RDF>
  </metadata>
  <sodipodi:namedview
     pagecolor="#ffffff"
     bordercolor="#666666"
     borderopacity="1"
     objecttolerance="10"
     gridtolerance="10"
     guidetolerance="10"
     inkscape:pageopacity="0"
     inkscape:pageshadow="2"
     inkscape:window-width="1920"
     inkscape:window-height="986"
     id="namedview6721"
     showgrid="false"
     showguides="false"
     inkscape:zoom="2.1190756"
     inkscape:cx="425.30317"
     inkscape:cy="544.45705"
     inkscape:window-x="-11"
     inkscape:window-y="-11"
     inkscape:window-maximized="1"
     inkscape:current-layer="svg6719" />
  <!--Generated by the Batik Graphics2D SVG Generator-->
  <defs
     id="genericDefs" />
  <g
     id="g6717">
    <defs
       id="defs1">
      <clipPath
         clipPathUnits="userSpaceOnUse"
         id="clipPath1">
        <path
           d="M 0,0 H 840 V 630 H 0 Z"
           id="path6495"
           inkscape:connector-curvature="0" />
      </clipPath>
    </defs>
    <g
       style="fill:#ffffff;stroke:#ffffff"
       id="g6501">
      <rect
         x="0"
         y="0"
         width="840"
         style="stroke:none"
         height="630"
         clip-path="url(#clipPath1)"
         id="rect6499" />
    </g>
    <g
       style="color-interpolation:sRGB;fill:#ffffff;stroke:#ffffff;color-rendering:optimizeSpeed;image-rendering:optimizeSpeed;shape-rendering:crispEdges;text-rendering:optimizeSpeed"
       id="g6507">
      <rect
         x="0"
         width="840"
         height="630"
         y="0"
         style="stroke:none"
         id="rect6503" />
      <path
         style="stroke:none"
         d="M 109,561 H 760 V 47 H 109 Z"
         id="path6505"
         inkscape:connector-curvature="0" />
    </g>
    <g
       style="color-interpolation:linearRGB;fill:#262626;stroke:#262626;stroke-linejoin:round;color-rendering:optimizeQuality;image-rendering:optimizeQuality;text-rendering:geometricPrecision"
       id="g6541">
      <line
         y2="561"
         style="fill:none"
         x1="109"
         x2="760"
         y1="561"
         id="line6509" />
      <line
         y2="47"
         style="fill:none"
         x1="109"
         x2="760"
         y1="47"
         id="line6511" />
      <line
         y2="554.48999"
         style="fill:none"
         x1="109"
         x2="109"
         y1="561"
         id="line6513" />
      <line
         y2="554.48999"
         style="fill:none"
         x1="217.5"
         x2="217.5"
         y1="561"
         id="line6515" />
      <line
         y2="554.48999"
         style="fill:none"
         x1="326"
         x2="326"
         y1="561"
         id="line6517" />
      <line
         y2="554.48999"
         style="fill:none"
         x1="434.5"
         x2="434.5"
         y1="561"
         id="line6519" />
      <line
         y2="554.48999"
         style="fill:none"
         x1="543"
         x2="543"
         y1="561"
         id="line6521" />
      <line
         y2="554.48999"
         style="fill:none"
         x1="651.5"
         x2="651.5"
         y1="561"
         id="line6523" />
      <line
         y2="554.48999"
         style="fill:none"
         x1="760"
         x2="760"
         y1="561"
         id="line6525" />
      <line
         y2="53.509998"
         style="fill:none"
         x1="109"
         x2="109"
         y1="47"
         id="line6527" />
      <line
         y2="53.509998"
         style="fill:none"
         x1="217.5"
         x2="217.5"
         y1="47"
         id="line6529" />
      <line
         y2="53.509998"
         style="fill:none"
         x1="326"
         x2="326"
         y1="47"
         id="line6531" />
      <line
         y2="53.509998"
         style="fill:none"
         x1="434.5"
         x2="434.5"
         y1="47"
         id="line6533" />
      <line
         y2="53.509998"
         style="fill:none"
         x1="543"
         x2="543"
         y1="47"
         id="line6535" />
      <line
         y2="53.509998"
         style="fill:none"
         x1="651.5"
         x2="651.5"
         y1="47"
         id="line6537" />
      <line
         y2="53.509998"
         style="fill:none"
         x1="760"
         x2="760"
         y1="47"
         id="line6539" />
    </g>
    <g
       transform="translate(109,569)"
       style="font-size:20px;font-family:SansSerif;color-interpolation:linearRGB;fill:#262626;stroke:#262626;color-rendering:optimizeQuality;image-rendering:optimizeQuality;text-rendering:geometricPrecision"
       id="g6545">
      <path
         style="stroke:none"
         d="m -13.1719,13.9375 q 0,-2.5313 0.5235,-4.0859 0.5234,-1.5547 1.5546,-2.3907 1.0313,-0.8359 2.5938,-0.8359 1.1562,0 2.0234,0.4609 0.8672,0.461 1.4297,1.336 0.5625,0.875 0.8907,2.1328 0.3281,1.2578 0.3281,3.3828 0,2.5156 -0.5235,4.0625 -0.5234,1.5469 -1.5468,2.3984 Q -6.9219,21.25 -8.5,21.25 q -2.0781,0 -3.25,-1.4844 -1.4219,-1.7968 -1.4219,-5.8281 z m 1.8125,0 q 0,3.5313 0.8203,4.6953 0.8203,1.1641 2.0391,1.1641 1.2031,0 2.0312,-1.1719 0.8282,-1.1719 0.8282,-4.6875 0,-3.5313 -0.8282,-4.6953 -0.8281,-1.1641 -2.0468,-1.1641 -1.2188,0 -1.9375,1.0313 -0.9063,1.2968 -0.9063,4.8281 z M -1.0645,21 v -2 h 2 v 2 z M 6.2109,13.2344 Q 5.1172,12.8281 4.5938,12.0859 4.0703,11.3438 4.0703,10.3125 q 0,-1.5625 1.125,-2.625 1.125,-1.0625 2.9844,-1.0625 1.875,0 3.0156,1.0859 1.1406,1.086 1.1406,2.6485 0,1 -0.5234,1.7344 -0.5234,0.7343 -1.5859,1.1406 1.3281,0.4375 2.0156,1.3906 0.6875,0.9531 0.6875,2.2812 0,1.8438 -1.3047,3.0938 -1.3047,1.25 -3.4141,1.25 -2.125,0 -3.4218,-1.2578 -1.2969,-1.2578 -1.2969,-3.1328 0,-1.3906 0.7109,-2.336 0.711,-0.9453 2.0078,-1.289 z M 5.8672,10.25 q 0,1.0156 0.6562,1.6641 0.6563,0.6484 1.6875,0.6484 1.0157,0 1.6719,-0.6406 0.6563,-0.6407 0.6563,-1.5625 0,-0.9688 -0.6719,-1.6328 -0.6719,-0.6641 -1.6719,-0.6641 -1,0 -1.6641,0.6484 -0.664,0.6485 -0.664,1.5391 z m -0.5625,6.625 q 0,0.75 0.3515,1.4531 0.3516,0.7031 1.0547,1.086 0.7032,0.3828 1.5157,0.3828 1.2656,0 2.0859,-0.8125 0.8203,-0.8125 0.8203,-2.0625 0,-1.2657 -0.8437,-2.0938 Q 9.4453,14 8.1641,14 6.9297,14 6.1172,14.8203 5.3047,15.6406 5.3047,16.875 Z"
         id="path6543"
         inkscape:connector-curvature="0" />
    </g>
    <g
       transform="translate(217.5,569)"
       style="font-size:20px;font-family:SansSerif;color-interpolation:linearRGB;fill:#262626;stroke:#262626;color-rendering:optimizeQuality;image-rendering:optimizeQuality;text-rendering:geometricPrecision"
       id="g6549">
      <path
         style="stroke:none"
         d="M 1.4531,21 H -0.3125 V 9.7969 q -0.625,0.6093 -1.6563,1.2109 Q -3,11.6094 -3.8281,11.9219 V 10.2188 Q -2.3438,9.5312 -1.2422,8.5391 -0.1406,7.5469 0.3125,6.625 h 1.1406 z"
         id="path6547"
         inkscape:connector-curvature="0" />
    </g>
    <g
       transform="translate(326,569)"
       style="font-size:20px;font-family:SansSerif;color-interpolation:linearRGB;fill:#262626;stroke:#262626;color-rendering:optimizeQuality;image-rendering:optimizeQuality;text-rendering:geometricPrecision"
       id="g6553">
      <path
         style="stroke:none"
         d="M -6.5469,21 H -8.3125 V 9.7969 q -0.625,0.6093 -1.6563,1.2109 -1.0312,0.6016 -1.8593,0.9141 v -1.7031 q 1.4843,-0.6876 2.5859,-1.6797 1.1016,-0.9922 1.5547,-1.9141 h 1.1406 z m 5.4824,0 v -2 h 2 v 2 z M 12.7422,19.3125 V 21 H 3.2891 q -0.0157,-0.6406 0.2031,-1.2188 0.3594,-0.9687 1.1562,-1.9062 0.7969,-0.9375 2.2969,-2.1719 2.3438,-1.9062 3.1641,-3.0234 0.8203,-1.1172 0.8203,-2.1172 0,-1.0469 -0.75,-1.7656 -0.75,-0.7188 -1.9531,-0.7188 -1.2657,0 -2.0313,0.7657 -0.7656,0.7656 -0.7656,2.1093 L 3.6172,10.7656 Q 3.8047,8.75 5.0156,7.6875 6.2266,6.625 8.2734,6.625 q 2.0469,0 3.25,1.1406 1.2032,1.1406 1.2032,2.8282 0,0.8593 -0.3516,1.6953 -0.3516,0.8359 -1.1641,1.75 -0.8125,0.914 -2.7031,2.5234 -1.5937,1.3281 -2.039,1.7969 -0.4454,0.4687 -0.7422,0.9531 z"
         id="path6551"
         inkscape:connector-curvature="0" />
    </g>
    <g
       transform="translate(434.5,569)"
       style="font-size:20px;font-family:SansSerif;color-interpolation:linearRGB;fill:#262626;stroke:#262626;color-rendering:optimizeQuality;image-rendering:optimizeQuality;text-rendering:geometricPrecision"
       id="g6557">
      <path
         style="stroke:none"
         d="M -6.5469,21 H -8.3125 V 9.7969 q -0.625,0.6093 -1.6563,1.2109 -1.0312,0.6016 -1.8593,0.9141 v -1.7031 q 1.4843,-0.6876 2.5859,-1.6797 1.1016,-0.9922 1.5547,-1.9141 h 1.1406 z m 5.4824,0 v -2 h 2 v 2 z M 9.1484,21 V 17.5781 H 2.9297 v -1.625 L 9.4609,6.6875 h 1.4375 v 9.2656 h 1.9375 v 1.625 H 10.8984 V 21 Z m 0,-5.0469 V 9.5 l -4.4843,6.4531 z"
         id="path6555"
         inkscape:connector-curvature="0" />
    </g>
    <g
       transform="translate(543,569)"
       style="font-size:20px;font-family:SansSerif;color-interpolation:linearRGB;fill:#262626;stroke:#262626;color-rendering:optimizeQuality;image-rendering:optimizeQuality;text-rendering:geometricPrecision"
       id="g6561">
      <path
         style="stroke:none"
         d="M -6.5469,21 H -8.3125 V 9.7969 q -0.625,0.6093 -1.6563,1.2109 -1.0312,0.6016 -1.8593,0.9141 v -1.7031 q 1.4843,-0.6876 2.5859,-1.6797 1.1016,-0.9922 1.5547,-1.9141 h 1.1406 z m 5.4824,0 v -2 h 2 v 2 z m 13.6973,-10.8125 -1.75,0.1406 Q 10.6484,9.2969 10.2266,8.8281 9.5078,8.0625 8.4609,8.0625 q -0.8437,0 -1.4687,0.4687 -0.8281,0.6094 -1.3125,1.7735 -0.4844,1.1641 -0.5,3.3047 0.6406,-0.9532 1.5547,-1.4219 0.914,-0.4687 1.9297,-0.4687 1.75,0 2.9843,1.289 1.2344,1.2891 1.2344,3.336 0,1.3593 -0.5781,2.5156 -0.5781,1.1562 -1.5938,1.7734 -1.0156,0.6172 -2.3125,0.6172 -2.1875,0 -3.5781,-1.6172 -1.3906,-1.6172 -1.3906,-5.3359 0,-4.1407 1.5312,-6.0313 1.3438,-1.6406 3.6094,-1.6406 1.6875,0 2.7656,0.9453 1.0782,0.9453 1.2969,2.6172 z m -7.1719,6.1719 q 0,0.9062 0.3829,1.7344 0.3828,0.8281 1.0781,1.2656 0.6953,0.4375 1.4453,0.4375 1.125,0 1.9219,-0.8985 0.7968,-0.8984 0.7968,-2.4453 0,-1.4843 -0.789,-2.3359 -0.7891,-0.8516 -1.9922,-0.8516 -1.1875,0 -2.0156,0.8516 -0.8282,0.8516 -0.8282,2.2422 z"
         id="path6559"
         inkscape:connector-curvature="0" />
    </g>
    <g
       transform="translate(651.5,569)"
       style="font-size:20px;font-family:SansSerif;color-interpolation:linearRGB;fill:#262626;stroke:#262626;color-rendering:optimizeQuality;image-rendering:optimizeQuality;text-rendering:geometricPrecision"
       id="g6565">
      <path
         style="stroke:none"
         d="M -6.5469,21 H -8.3125 V 9.7969 q -0.625,0.6093 -1.6563,1.2109 -1.0312,0.6016 -1.8593,0.9141 v -1.7031 q 1.4843,-0.6876 2.5859,-1.6797 1.1016,-0.9922 1.5547,-1.9141 h 1.1406 z m 5.4824,0 v -2 h 2 v 2 z M 6.2109,13.2344 Q 5.1172,12.8281 4.5938,12.0859 4.0703,11.3438 4.0703,10.3125 q 0,-1.5625 1.125,-2.625 1.125,-1.0625 2.9844,-1.0625 1.875,0 3.0156,1.0859 1.1406,1.086 1.1406,2.6485 0,1 -0.5234,1.7344 -0.5234,0.7343 -1.5859,1.1406 1.3281,0.4375 2.0156,1.3906 0.6875,0.9531 0.6875,2.2812 0,1.8438 -1.3047,3.0938 -1.3047,1.25 -3.4141,1.25 -2.125,0 -3.4218,-1.2578 -1.2969,-1.2578 -1.2969,-3.1328 0,-1.3906 0.7109,-2.336 0.711,-0.9453 2.0078,-1.289 z M 5.8672,10.25 q 0,1.0156 0.6562,1.6641 0.6563,0.6484 1.6875,0.6484 1.0157,0 1.6719,-0.6406 0.6563,-0.6407 0.6563,-1.5625 0,-0.9688 -0.6719,-1.6328 -0.6719,-0.6641 -1.6719,-0.6641 -1,0 -1.6641,0.6484 -0.664,0.6485 -0.664,1.5391 z m -0.5625,6.625 q 0,0.75 0.3515,1.4531 0.3516,0.7031 1.0547,1.086 0.7032,0.3828 1.5157,0.3828 1.2656,0 2.0859,-0.8125 0.8203,-0.8125 0.8203,-2.0625 0,-1.2657 -0.8437,-2.0938 Q 9.4453,14 8.1641,14 6.9297,14 6.1172,14.8203 5.3047,15.6406 5.3047,16.875 Z"
         id="path6563"
         inkscape:connector-curvature="0" />
    </g>
    <g
       transform="translate(760,569)"
       style="font-size:20px;font-family:SansSerif;color-interpolation:linearRGB;fill:#262626;stroke:#262626;color-rendering:optimizeQuality;image-rendering:optimizeQuality;text-rendering:geometricPrecision"
       id="g6569">
      <path
         style="stroke:none"
         d="M 4.0625,19.3125 V 21 h -9.4531 q -0.0156,-0.6406 0.2031,-1.2188 0.3594,-0.9687 1.1563,-1.9062 0.7968,-0.9375 2.2968,-2.1719 Q 0.6094,13.7969 1.4297,12.6797 2.25,11.5625 2.25,10.5625 2.25,9.5156 1.5,8.7969 0.75,8.0781 -0.4531,8.0781 q -1.2657,0 -2.0313,0.7657 Q -3.25,9.6094 -3.25,10.9531 L -5.0625,10.7656 Q -4.875,8.75 -3.6641,7.6875 -2.4531,6.625 -0.4062,6.625 q 2.0468,0 3.25,1.1406 1.2031,1.1406 1.2031,2.8282 0,0.8593 -0.3516,1.6953 -0.3515,0.8359 -1.1641,1.75 -0.8124,0.914 -2.7031,2.5234 -1.5937,1.3281 -2.039,1.7969 -0.4453,0.4687 -0.7422,0.9531 z"
         id="path6567"
         inkscape:connector-curvature="0" />
    </g>
    <g
       transform="translate(434.5003,597)"
       style="font-size:22px;font-family:mwa_cmmi10;color-interpolation:linearRGB;fill:#262626;stroke:#262626;color-rendering:optimizeQuality;image-rendering:optimizeQuality;text-rendering:geometricPrecision"
       id="g6573">
      <path
         style="stroke:none;stroke-width:1.51562428"
         d="m -2.7372515,23.907764 q 0,-0.164427 0.027242,-0.246641 l 2.8651593,-8.652946 q 0.30001486,-0.801615 0.30001486,-1.397631 0,-1.253724 -1.14592403,-1.253724 -1.20058333,0 -1.77354533,1.079037 -0.5731366,1.079037 -1.1188563,2.743829 0,0.08221 -0.1227651,0.133646 -0.1227651,0.0513 -0.2046667,0.0513 h -0.4365758 q -0.1363863,0 -0.231909,-0.112995 Q -4.6746,16.138647 -4.6746,16.056433 -4.2652666,14.802578 -3.8831755,13.929141 -3.501259,13.055572 -2.6825922,12.33617 -1.8641,11.6169 -0.63627432,11.6169 q 1.30972725,0 2.31943962,0.575495 1.0095378,0.575495 1.255068,1.520886 Q 3.9205287,12.747238 5.1621502,12.182135 6.403597,11.6169 7.8769528,11.6169 q 1.2280003,0 2.1556362,0.534322 0.927811,0.534455 0.927811,1.459324 0,0.719402 -0.600379,1.263985 -0.6002043,0.544714 -1.637159,0.544714 -0.6002044,0 -1.023159,-0.287813 -0.4229545,-0.287682 -0.4229545,-0.739922 0,-0.637057 0.6140001,-1.140599 0.6138255,-0.503673 1.4324923,-0.503673 -0.6276213,-0.390416 -1.5007728,-0.390416 -1.6644013,0 -2.8786058,0.883698 -1.2143791,0.883828 -2.1966746,2.240418 l -2.72859839,8.28292 q -0.13638627,0.390547 -0.60020434,0.67836 -0.46381807,0.287682 -1.00953777,0.287682 -0.491235,0 -0.8186668,-0.22612 -0.3274319,-0.225989 -0.3274319,-0.596016 z"
         id="path6571"
         inkscape:connector-curvature="0" />
    </g>
    <g
       style="color-interpolation:linearRGB;fill:#262626;stroke:#262626;stroke-linejoin:round;color-rendering:optimizeQuality;image-rendering:optimizeQuality;text-rendering:geometricPrecision"
       id="g6615">
      <line
         y2="47"
         style="fill:none"
         x1="109"
         x2="109"
         y1="561"
         id="line6575" />
      <line
         y2="47"
         style="fill:none"
         x1="760"
         x2="760"
         y1="561"
         id="line6577" />
      <line
         y2="561"
         style="fill:none"
         x1="109"
         x2="115.51"
         y1="561"
         id="line6579" />
      <line
         y2="496.75"
         style="fill:none"
         x1="109"
         x2="115.51"
         y1="496.75"
         id="line6581" />
      <line
         y2="432.5"
         style="fill:none"
         x1="109"
         x2="115.51"
         y1="432.5"
         id="line6583" />
      <line
         y2="368.25"
         style="fill:none"
         x1="109"
         x2="115.51"
         y1="368.25"
         id="line6585" />
      <line
         y2="304"
         style="fill:none"
         x1="109"
         x2="115.51"
         y1="304"
         id="line6587" />
      <line
         y2="239.75"
         style="fill:none"
         x1="109"
         x2="115.51"
         y1="239.75"
         id="line6589" />
      <line
         y2="175.5"
         style="fill:none"
         x1="109"
         x2="115.51"
         y1="175.5"
         id="line6591" />
      <line
         y2="111.25"
         style="fill:none"
         x1="109"
         x2="115.51"
         y1="111.25"
         id="line6593" />
      <line
         y2="47"
         style="fill:none"
         x1="109"
         x2="115.51"
         y1="47"
         id="line6595" />
      <line
         y2="561"
         style="fill:none"
         x1="760"
         x2="753.48999"
         y1="561"
         id="line6597" />
      <line
         y2="496.75"
         style="fill:none"
         x1="760"
         x2="753.48999"
         y1="496.75"
         id="line6599" />
      <line
         y2="432.5"
         style="fill:none"
         x1="760"
         x2="753.48999"
         y1="432.5"
         id="line6601" />
      <line
         y2="368.25"
         style="fill:none"
         x1="760"
         x2="753.48999"
         y1="368.25"
         id="line6603" />
      <line
         y2="304"
         style="fill:none"
         x1="760"
         x2="753.48999"
         y1="304"
         id="line6605" />
      <line
         y2="239.75"
         style="fill:none"
         x1="760"
         x2="753.48999"
         y1="239.75"
         id="line6607" />
      <line
         y2="175.5"
         style="fill:none"
         x1="760"
         x2="753.48999"
         y1="175.5"
         id="line6609" />
      <line
         y2="111.25"
         style="fill:none"
         x1="760"
         x2="753.48999"
         y1="111.25"
         id="line6611" />
      <line
         y2="47"
         style="fill:none"
         x1="760"
         x2="753.48999"
         y1="47"
         id="line6613" />
    </g>
    <g
       transform="translate(101,561)"
       style="font-size:20px;font-family:SansSerif;color-interpolation:linearRGB;fill:#262626;stroke:#262626;color-rendering:optimizeQuality;image-rendering:optimizeQuality;text-rendering:geometricPrecision"
       id="g6619">
      <path
         style="stroke:none"
         d="M -17.3594,3.7031 V 1.9375 h 5.3906 V 3.7031 Z M -3.8867,8 H -5.6523 V -3.2031 q -0.625,0.6093 -1.6563,1.2109 -1.0312,0.6016 -1.8594,0.9141 v -1.7031 q 1.4844,-0.6876 2.586,-1.6797 1.1015,-0.9922 1.5547,-1.9141 h 1.1406 z"
         id="path6617"
         inkscape:connector-curvature="0" />
    </g>
    <g
       transform="translate(101,496.75)"
       style="font-size:20px;font-family:SansSerif;color-interpolation:linearRGB;fill:#262626;stroke:#262626;color-rendering:optimizeQuality;image-rendering:optimizeQuality;text-rendering:geometricPrecision"
       id="g6623">
      <path
         style="stroke:none"
         d="m -11.1719,0.9375 q 0,-2.5313 0.5235,-4.0859 0.5234,-1.5547 1.5546,-2.3907 1.0313,-0.8359 2.5938,-0.8359 1.1562,0 2.0234,0.4609 0.8672,0.461 1.4297,1.336 0.5625,0.875 0.8907,2.1328 0.3281,1.2578 0.3281,3.3828 0,2.5156 -0.5235,4.0625 Q -2.875,6.5469 -3.8984,7.3984 -4.9219,8.25 -6.5,8.25 q -2.0781,0 -3.25,-1.4844 -1.4219,-1.7968 -1.4219,-5.8281 z m 1.8125,0 q 0,3.5313 0.8203,4.6953 0.8203,1.1641 2.0391,1.1641 1.2031,0 2.0312,-1.1719 0.8282,-1.1719 0.8282,-4.6875 0,-3.5313 -0.8282,-4.6953 -0.8281,-1.1641 -2.0468,-1.1641 -1.2188,0 -1.9375,1.0313 -0.9063,1.2968 -0.9063,4.8281 z"
         id="path6621"
         inkscape:connector-curvature="0" />
    </g>
    <g
       transform="translate(101,432.5)"
       style="font-size:20px;font-family:SansSerif;color-interpolation:linearRGB;fill:#262626;stroke:#262626;color-rendering:optimizeQuality;image-rendering:optimizeQuality;text-rendering:geometricPrecision"
       id="g6627">
      <path
         style="stroke:none"
         d="M -4.5469,8 H -6.3125 V -3.2031 q -0.625,0.6093 -1.6563,1.2109 Q -9,-1.3906 -9.8281,-1.0781 v -1.7031 q 1.4843,-0.6876 2.5859,-1.6797 1.1016,-0.9922 1.5547,-1.9141 h 1.1406 z"
         id="path6625"
         inkscape:connector-curvature="0" />
    </g>
    <g
       transform="translate(101,368.25)"
       style="font-size:20px;font-family:SansSerif;color-interpolation:linearRGB;fill:#262626;stroke:#262626;color-rendering:optimizeQuality;image-rendering:optimizeQuality;text-rendering:geometricPrecision"
       id="g6631">
      <path
         style="stroke:none"
         d="M -1.9375,6.3125 V 8 h -9.4531 q -0.0156,-0.6406 0.2031,-1.2188 0.3594,-0.9687 1.1563,-1.9062 0.7968,-0.9375 2.2968,-2.1719 2.3438,-1.9062 3.1641,-3.0234 0.8203,-1.1172 0.8203,-2.1172 0,-1.0469 -0.75,-1.7656 -0.75,-0.7188 -1.9531,-0.7188 -1.2657,0 -2.0313,0.7657 -0.7656,0.7656 -0.7656,2.1093 l -1.8125,-0.1875 q 0.1875,-2.0156 1.3984,-3.0781 1.211,-1.0625 3.2579,-1.0625 2.0468,0 3.25,1.1406 1.2031,1.1406 1.2031,2.8282 0,0.8593 -0.3516,1.6953 -0.3515,0.8359 -1.1641,1.75 -0.8124,0.914 -2.7031,2.5234 -1.5937,1.3281 -2.039,1.7969 -0.4453,0.4687 -0.7422,0.9531 z"
         id="path6629"
         inkscape:connector-curvature="0" />
    </g>
    <g
       transform="translate(101,304)"
       style="font-size:20px;font-family:SansSerif;color-interpolation:linearRGB;fill:#262626;stroke:#262626;color-rendering:optimizeQuality;image-rendering:optimizeQuality;text-rendering:geometricPrecision"
       id="g6635">
      <path
         style="stroke:none"
         d="m -11.1562,4.2188 1.75,-0.2344 q 0.3124,1.5 1.039,2.1562 0.7266,0.6563 1.7734,0.6563 1.2344,0 2.086,-0.8594 0.8516,-0.8594 0.8516,-2.125 0,-1.2187 -0.7891,-2 -0.7891,-0.7813 -2.0078,-0.7813 -0.5,0 -1.2344,0.1876 L -7.5,-0.3281 q 0.1719,0.0312 0.2812,0.0312 1.125,0 2.0235,-0.5859 0.8984,-0.586 0.8984,-1.8047 0,-0.9687 -0.6562,-1.6094 -0.6563,-0.6406 -1.6875,-0.6406 -1.0156,0 -1.7032,0.6484 -0.6874,0.6485 -0.875,1.9297 l -1.7656,-0.3125 q 0.3282,-1.7656 1.4688,-2.7343 1.1406,-0.9688 2.8437,-0.9688 1.1719,0 2.1563,0.5 0.9844,0.5 1.5078,1.375 0.5234,0.875 0.5234,1.8438 0,0.9218 -0.5,1.6874 -0.5,0.7657 -1.4687,1.2188 1.2656,0.2812 1.9687,1.2109 0.7032,0.9297 0.7032,2.3047 0,1.875 -1.3672,3.1797 Q -4.5156,8.25 -6.6094,8.25 -8.5,8.25 -9.7422,7.125 -10.9844,6 -11.1562,4.2188 Z"
         id="path6633"
         inkscape:connector-curvature="0" />
    </g>
    <g
       transform="translate(101,239.75)"
       style="font-size:20px;font-family:SansSerif;color-interpolation:linearRGB;fill:#262626;stroke:#262626;color-rendering:optimizeQuality;image-rendering:optimizeQuality;text-rendering:geometricPrecision"
       id="g6639">
      <path
         style="stroke:none"
         d="M -5.5312,8 V 4.5781 H -11.75 v -1.625 l 6.5312,-9.2656 h 1.4376 v 9.2656 h 1.9374 v 1.625 H -3.7812 V 8 Z m 0,-5.0469 V -3.5 l -4.4844,6.4531 z"
         id="path6637"
         inkscape:connector-curvature="0" />
    </g>
    <g
       transform="translate(101,175.5)"
       style="font-size:20px;font-family:SansSerif;color-interpolation:linearRGB;fill:#262626;stroke:#262626;color-rendering:optimizeQuality;image-rendering:optimizeQuality;text-rendering:geometricPrecision"
       id="g6643">
      <path
         style="stroke:none"
         d="m -11.1719,4.25 1.8438,-0.1562 q 0.2031,1.3437 0.9531,2.0234 0.75,0.6797 1.8125,0.6797 1.2656,0 2.1406,-0.9531 0.875,-0.9532 0.875,-2.5469 0,-1.5 -0.8437,-2.3672 -0.8438,-0.8672 -2.2032,-0.8672 -0.8593,0 -1.539,0.3828 -0.6797,0.3828 -1.0703,1.0078 l -1.6563,-0.2187 1.3906,-7.3594 h 7.125 v 1.6875 h -5.7187 l -0.7656,3.8437 Q -7.5469,-1.5 -6.125,-1.5 q 1.875,0 3.1641,1.3047 1.289,1.3047 1.289,3.3359 0,1.9532 -1.1406,3.3594 -1.375,1.75 -3.75,1.75 -1.9531,0 -3.1953,-1.0938 Q -11,6.0625 -11.1719,4.25 Z"
         id="path6641"
         inkscape:connector-curvature="0" />
    </g>
    <g
       transform="translate(101,111.25)"
       style="font-size:20px;font-family:SansSerif;color-interpolation:linearRGB;fill:#262626;stroke:#262626;color-rendering:optimizeQuality;image-rendering:optimizeQuality;text-rendering:geometricPrecision"
       id="g6647">
      <path
         style="stroke:none"
         d="m -2.0469,-2.8125 -1.75,0.1406 q -0.2343,-1.0312 -0.6562,-1.5 -0.7188,-0.7656 -1.7657,-0.7656 -0.8437,0 -1.4687,0.4687 -0.8281,0.6094 -1.3125,1.7735 -0.4844,1.1641 -0.5,3.3047 0.6406,-0.9532 1.5547,-1.4219 0.9141,-0.4687 1.9297,-0.4687 1.75,0 2.9844,1.289 1.2343,1.2891 1.2343,3.336 0,1.3593 -0.5781,2.5156 Q -2.9531,7.0156 -3.9688,7.6328 -4.9844,8.25 -6.2812,8.25 -8.4688,8.25 -9.8594,6.6328 -11.25,5.0156 -11.25,1.2969 q 0,-4.1407 1.5312,-6.0313 1.3438,-1.6406 3.6094,-1.6406 1.6875,0 2.7656,0.9453 1.0782,0.9453 1.2969,2.6172 z m -7.1719,6.1719 q 0,0.9062 0.3829,1.7344 0.3828,0.8281 1.0781,1.2656 0.6953,0.4375 1.4453,0.4375 1.125,0 1.9219,-0.8985 Q -3.5938,5 -3.5938,3.4531 q 0,-1.4843 -0.789,-2.3359 -0.7891,-0.8516 -1.9922,-0.8516 -1.1875,0 -2.0156,0.8516 -0.8282,0.8516 -0.8282,2.2422 z"
         id="path6645"
         inkscape:connector-curvature="0" />
    </g>
    <g
       transform="translate(101,47)"
       style="font-size:20px;font-family:SansSerif;color-interpolation:linearRGB;fill:#262626;stroke:#262626;color-rendering:optimizeQuality;image-rendering:optimizeQuality;text-rendering:geometricPrecision"
       id="g6651">
      <path
         style="stroke:none"
         d="M -11.0469,-4.4375 V -6.125 h 9.2657 v 1.3594 Q -3.1562,-3.3125 -4.5,-0.8984 -5.8438,1.5156 -6.5625,4.0625 -7.0938,5.8594 -7.25,8 h -1.7969 q 0.0313,-1.6875 0.6641,-4.0781 0.6328,-2.3907 1.8203,-4.6172 1.1875,-2.2266 2.5156,-3.7422 z"
         id="path6649"
         inkscape:connector-curvature="0" />
    </g>
    <g
       transform="rotate(-90,190.4999,113.4999)"
       style="font-size:22px;font-family:mwb_cmmi10;color-interpolation:linearRGB;fill:#262626;stroke:#262626;color-rendering:optimizeQuality;image-rendering:optimizeQuality;text-rendering:geometricPrecision"
       id="g6661">
      <g
         id="g10967"
         transform="matrix(1.4646763,0,0,1.5684297,8.9899993,1.3756567)">
        <g
           id="g10973">
          <path
             style="stroke:none"
             d="m -16.1124,-3.6388 0.9843,-3.9688 q -1.1093,0 -2.0781,-0.5234 -0.9687,-0.5235 -1.5547,-1.4531 -0.5859,-0.9297 -0.5859,-2.0391 0,-1.1875 0.5937,-2.2734 0.5938,-1.086 1.6172,-1.9688 1.0235,-0.8828 2.2031,-1.3594 1.1797,-0.4765 2.336,-0.4765 l 1.3281,-5.3594 q 0.0469,-0.125 0.1719,-0.125 h 0.2656 q 0.0938,0 0.1484,0.0781 0.0547,0.0781 0.0547,0.1406 l -1.3281,5.2657 q 0.8281,0 1.6016,0.2968 0.7734,0.2969 1.3672,0.8438 0.5937,0.5469 0.9296,1.2812 0.336,0.7344 0.336,1.5625 0,1.2032 -0.5938,2.2891 -0.5937,1.0859 -1.5937,1.9531 -1,0.8672 -2.2266,1.3672 -1.2265,0.5 -2.3515,0.5 l -1,4.0781 q -0.0469,0.125 -0.1875,0.125 h -0.25 q -0.0938,0 -0.1407,-0.0859 -0.0468,-0.0859 -0.0468,-0.1484 z m 1.125,-4.5469 2.25,-8.9531 q -0.5625,0 -1.1719,0.2265 -0.6094,0.2266 -1.1563,0.5703 -0.5468,0.3438 -0.9843,0.7813 -0.5313,0.5469 -0.9454,1.2734 -0.414,0.7266 -0.6171,1.5391 -0.2032,0.8125 -0.2032,1.5937 0,0.8282 0.3516,1.5079 0.3516,0.6796 1,1.0703 0.6484,0.3906 1.4766,0.3906 z m 0.6562,0 q 0.8281,0 1.7656,-0.4766 0.9375,-0.4765 1.5313,-1.1015 0.8281,-0.8282 1.3047,-2.0078 0.4765,-1.1797 0.4765,-2.3985 0,-0.8125 -0.3515,-1.5 -0.3516,-0.6875 -1,-1.0781 -0.6485,-0.3906 -1.4766,-0.3906 z"
             id="path6653"
             inkscape:connector-curvature="0" />
          <path
             style="stroke:none"
             d="m -0.4416,-2.467 q -1.2344,-0.9687 -2.1172,-2.2187 -0.8828,-1.25 -1.4453,-2.6641 -0.5625,-1.414 -0.8437,-2.9609 -0.2813,-1.5469 -0.2813,-3.1094 0,-1.5781 0.2813,-3.125 0.2812,-1.5469 0.8515,-2.9765 0.5703,-1.4297 1.461,-2.6719 0.8906,-1.2422 2.0937,-2.1797 0,-0.0469 0.0938,-0.0469 h 0.2187 q 0.0625,0 0.1172,0.0625 0.0547,0.0625 0.0547,0.125 0,0.1094 -0.0469,0.1406 -1.0781,1.0625 -1.789,2.2657 -0.711,1.2031 -1.1485,2.5625 -0.4375,1.3593 -0.6328,2.8125 -0.1953,1.4531 -0.1953,3.0312 0,7 3.7344,10.625 0.0781,0.0625 0.0781,0.1875 0,0.0469 -0.0625,0.1172 -0.0625,0.0703 -0.1094,0.0703 h -0.2187 q -0.0938,0 -0.0938,-0.0469 z"
             id="path6655"
             inkscape:connector-curvature="0" />
          <path
             style="stroke:none"
             d="m 2.989,-8.2951 q 0,-0.125 0.0156,-0.1875 l 1.6406,-6.5781 q 0.1719,-0.6094 0.1719,-1.0625 0,-0.9531 -0.6562,-0.9531 -0.6875,0 -1.0157,0.8203 -0.3281,0.8203 -0.6406,2.0859 0,0.0625 -0.0703,0.1016 -0.0703,0.039 -0.1172,0.039 h -0.25 q -0.0781,0 -0.1328,-0.0859 -0.0547,-0.0859 -0.0547,-0.1484 0.2344,-0.9532 0.4531,-1.6172 0.2188,-0.6641 0.6875,-1.211 0.4688,-0.5468 1.1719,-0.5468 0.75,0 1.3281,0.4375 0.5782,0.4375 0.7188,1.1562 0.5625,-0.7344 1.2734,-1.164 0.711,-0.4297 1.5547,-0.4297 0.7031,0 1.2344,0.4062 0.5312,0.4063 0.5312,1.1094 0,0.5469 -0.3437,0.9609 -0.3438,0.4141 -0.9375,0.4141 -0.3438,0 -0.5859,-0.2188 -0.2422,-0.2187 -0.2422,-0.5625 0,-0.4843 0.3515,-0.8671 0.3516,-0.3829 0.8203,-0.3829 -0.3593,-0.2968 -0.8593,-0.2968 -0.9532,0 -1.6485,0.6718 -0.6953,0.6719 -1.2578,1.7032 L 4.5671,-8.4045 Q 4.489,-8.1076 4.2234,-7.8888 3.9577,-7.6701 3.6452,-7.6701 3.364,-7.6701 3.1765,-7.842 2.989,-8.0138 2.989,-8.2951 Z"
             id="path6657"
             inkscape:connector-curvature="0" />
          <path
             style="stroke:none"
             d="m 13.2444,-2.4201 q -0.1875,0 -0.1875,-0.1875 0,-0.1094 0.0468,-0.1406 3.75,-3.6719 3.75,-10.6719 0,-7 -3.7031,-10.625 -0.0937,-0.0469 -0.0937,-0.1875 0,-0.0625 0.0625,-0.125 0.0625,-0.0625 0.125,-0.0625 h 0.2187 q 0.0625,0 0.0938,0.0469 1.5781,1.2344 2.6328,3.0234 1.0547,1.7891 1.5468,3.8047 0.4922,2.0156 0.4922,4.125 0,1.5625 -0.2656,3.0703 -0.2656,1.5078 -0.8359,2.9766 -0.5703,1.4687 -1.4532,2.7031 -0.8828,1.2344 -2.1171,2.2031 -0.0313,0.0469 -0.0938,0.0469 z"
             id="path6659"
             inkscape:connector-curvature="0" />
        </g>
      </g>
    </g>
    <g
       transform="translate(434.5004,44.25)"
       style="font-size:22px;font-family:mwa_cmr10;color-interpolation:linearRGB;color-rendering:optimizeQuality;image-rendering:optimizeQuality;text-rendering:geometricPrecision"
       id="g6711">
      <g
         id="g11029"
         transform="matrix(1.3527785,0,0,1.7663469,-7.6599015,5.6983256)">
        <g
           id="g11055"
           transform="matrix(1,0,0,0.77948388,0,-1.6396917)">
          <path
             style="stroke:none"
             d="m -136.1648,-7.9201 v -0.7812 q 1.1094,0 2.1484,-0.1172 1.0391,-0.1172 1.0391,-0.5703 v -12.0938 q 0,-0.4687 -0.2656,-0.5781 -0.2657,-0.1094 -0.8438,-0.1094 h -0.9375 q -1.8125,0 -2.5781,0.7969 -0.3906,0.3906 -0.5625,1.2656 -0.1719,0.875 -0.2969,2.2031 h -0.625 l 0.4219,-5.0468 h 13.4375 l 0.4219,5.0468 h -0.6563 q -0.125,-1.4218 -0.2812,-2.2578 -0.1563,-0.8359 -0.5625,-1.2109 -0.7657,-0.7969 -2.5782,-0.7969 h -0.9218 q -0.4063,0 -0.625,0.0313 -0.2188,0.0312 -0.3594,0.1875 -0.1406,0.1562 -0.1406,0.4687 v 12.0938 q 0,0.4531 1.0468,0.5703 1.0469,0.1172 2.1407,0.1172 v 0.7812 z"
             id="path6663"
             inkscape:connector-curvature="0" />
          <path
             style="stroke:none"
             d="m -123.3384,-7.9201 v -0.7812 q 0.75,0 1.2344,-0.1172 0.4843,-0.1172 0.4843,-0.5703 v -11.5469 q 0,-0.5938 -0.1796,-0.8594 -0.1797,-0.2656 -0.5079,-0.3203 -0.3281,-0.0547 -1.0312,-0.0547 v -0.7812 l 3.2656,-0.2344 v 7.5625 q 0.4688,-0.9063 1.2891,-1.4609 0.8203,-0.5547 1.8203,-0.5547 1.5312,0 2.2969,0.7265 0.7656,0.7266 0.7656,2.2422 v 5.2813 q 0,0.4531 0.4844,0.5703 0.4843,0.1172 1.2343,0.1172 v 0.7812 h -5.0312 v -0.7812 q 0.75,0 1.2344,-0.1172 0.4843,-0.1172 0.4843,-0.5703 v -5.2188 q 0,-1.0781 -0.3125,-1.7734 -0.3125,-0.6953 -1.2812,-0.6953 -1.2813,0 -2.1016,1.0234 -0.8203,1.0234 -0.8203,2.3203 v 4.3438 q 0,0.4531 0.4844,0.5703 0.4844,0.1172 1.2187,0.1172 v 0.7812 z"
             id="path6665"
             inkscape:connector-curvature="0" />
          <path
             style="stroke:none"
             d="m -106.288,-7.6701 q -1.3438,0 -2.4688,-0.7031 -1.125,-0.7031 -1.7656,-1.8828 -0.6406,-1.1797 -0.6406,-2.4922 0,-1.2813 0.5859,-2.4453 0.586,-1.1641 1.6328,-1.875 1.0469,-0.711 2.3438,-0.711 1,0 1.75,0.336 0.75,0.3359 1.2344,0.9375 0.4843,0.6015 0.7265,1.4219 0.2422,0.8203 0.2422,1.789 0,0.2969 -0.2187,0.2969 h -6.375 v 0.2344 q 0,1.8281 0.7343,3.1406 0.7344,1.3125 2.4063,1.3125 0.6719,0 1.25,-0.3047 0.5781,-0.3047 1,-0.8437 0.4219,-0.5391 0.5781,-1.1485 0.0156,-0.0781 0.0781,-0.1328 0.0625,-0.0547 0.1407,-0.0547 h 0.1875 q 0.2187,0 0.2187,0.2813 -0.3125,1.2343 -1.3437,2.039 -1.0313,0.8047 -2.2969,0.8047 z m -2.9219,-5.875 h 5.0156 q 0,-0.8281 -0.2343,-1.6797 -0.2344,-0.8515 -0.7735,-1.414 -0.539,-0.5625 -1.3984,-0.5625 -1.25,0 -1.9297,1.164 -0.6797,1.1641 -0.6797,2.4922 z"
             id="path6667"
             inkscape:connector-curvature="0" />
          <path
             style="stroke:none"
             d="m -93.9894,-7.9201 v -0.7812 c 1.5104,0 2.2656,-0.2291667 2.2656,-0.6875 v -12.0938 c 0,-0.458333 -0.7552,-0.6875 -2.2656,-0.6875 v -0.7812 h 7.1406 v 0.7812 c -1.875,0 -2.8125,0.229167 -2.8125,0.6875 v 12.0938 c 0,0.3124667 0.08853,0.5051667 0.2656,0.5781 0.177067,0.072933 0.458333,0.1094 0.8438,0.1094 h 1.7031 c 1.093733,0 1.937467,-0.2005333 2.5312,-0.6016 0.5938,-0.4010667 1.0157,-0.945333 1.2657,-1.6328 0.25,-0.687533 1.646791,-2.359109 0.5625,-2.75 h 0.6406 l -0.625,5.7656 z"
             id="path6669"
             inkscape:connector-curvature="0"
             sodipodi:nodetypes="ccssccccssssscccccc" />
          <path
             style="stroke:none"
             d="m -75.4269,-7.6701 q -1.3437,0 -2.4687,-0.7031 -1.125,-0.7031 -1.7657,-1.8828 -0.6406,-1.1797 -0.6406,-2.4922 0,-1.2813 0.5859,-2.4453 0.586,-1.1641 1.6329,-1.875 1.0468,-0.711 2.3437,-0.711 1,0 1.75,0.336 0.75,0.3359 1.2344,0.9375 0.4844,0.6015 0.7265,1.4219 0.2422,0.8203 0.2422,1.789 0,0.2969 -0.2187,0.2969 h -6.375 v 0.2344 q 0,1.8281 0.7344,3.1406 0.7343,1.3125 2.4062,1.3125 0.6719,0 1.25,-0.3047 0.5781,-0.3047 1,-0.8437 0.4219,-0.5391 0.5781,-1.1485 0.0157,-0.0781 0.0782,-0.1328 0.0625,-0.0547 0.1406,-0.0547 h 0.1875 q 0.2187,0 0.2187,0.2813 -0.3125,1.2343 -1.3437,2.039 -1.0313,0.8047 -2.2969,0.8047 z m -2.9219,-5.875 h 5.0157 q 0,-0.8281 -0.2344,-1.6797 -0.2344,-0.8515 -0.7735,-1.414 -0.539,-0.5625 -1.3984,-0.5625 -1.25,0 -1.9297,1.164 -0.6797,1.1641 -0.6797,2.4922 z"
             id="path6671"
             inkscape:connector-curvature="0" />
          <path
             style="stroke:none"
             d="m -70.4772,-7.9201 v -0.7812 q 0.75,0 1.2343,-0.1172 0.4844,-0.1172 0.4844,-0.5703 v -6.0157 q 0,-0.5781 -0.1797,-0.8437 -0.1797,-0.2656 -0.5078,-0.3281 -0.3281,-0.0625 -1.0312,-0.0625 v -0.7657 l 3.1875,-0.2343 v 2.1406 q 0.4375,-0.9375 1.3046,-1.5391 0.8672,-0.6015 1.8829,-0.6015 1.5312,0 2.2968,0.7265 0.7657,0.7266 0.7657,2.2422 v 5.2813 q 0,0.4531 0.4843,0.5703 0.4844,0.1172 1.2344,0.1172 v 0.7812 h -5.0312 v -0.7812 q 0.75,0 1.2343,-0.1172 0.4844,-0.1172 0.4844,-0.5703 v -5.2188 q 0,-1.0781 -0.3125,-1.7734 -0.3125,-0.6953 -1.2812,-0.6953 -1.2813,0 -2.1016,1.0234 -0.8203,1.0234 -0.8203,2.3203 v 4.3438 q 0,0.4531 0.4844,0.5703 0.4843,0.1172 1.2187,0.1172 v 0.7812 z"
             id="path6673"
             inkscape:connector-curvature="0" />
          <path
             style="stroke:none"
             d="m -58.255,-7.9201 v -0.7812 q 0.75,0 1.2344,-0.1172 0.4844,-0.1172 0.4844,-0.5703 v -6.0157 q 0,-0.5781 -0.1797,-0.8437 -0.1797,-0.2656 -0.5078,-0.3281 -0.3282,-0.0625 -1.0313,-0.0625 v -0.7657 l 3.1875,-0.2343 v 2.1406 q 0.4375,-0.9375 1.3047,-1.5391 0.8672,-0.6015 1.8828,-0.6015 1.5313,0 2.2969,0.7265 0.7656,0.7266 0.7656,2.2422 v 5.2813 q 0,0.4531 0.4844,0.5703 0.4844,0.1172 1.2344,0.1172 v 0.7812 H -52.13 v -0.7812 q 0.75,0 1.2344,-0.1172 0.4844,-0.1172 0.4844,-0.5703 v -5.2188 q 0,-1.0781 -0.3125,-1.7734 -0.3125,-0.6953 -1.2813,-0.6953 -1.2812,0 -2.1015,1.0234 -0.8204,1.0234 -0.8204,2.3203 v 4.3438 q 0,0.4531 0.4844,0.5703 0.4844,0.1172 1.2188,0.1172 v 0.7812 z"
             id="path6675"
             inkscape:connector-curvature="0" />
          <path
             style="stroke:none"
             d="m -45.814,-10.0763 q 0,-1.3125 1.0313,-2.1328 1.0312,-0.8204 2.4765,-1.1641 1.4454,-0.3438 2.7579,-0.3438 v -0.8906 q 0,-0.6406 -0.2813,-1.2344 -0.2812,-0.5937 -0.8125,-0.9765 -0.5312,-0.3828 -1.1562,-0.3828 -1.4688,0 -2.2188,0.6562 0.4063,0 0.6797,0.3125 0.2734,0.3125 0.2734,0.7344 0,0.4375 -0.3047,0.75 -0.3046,0.3125 -0.7421,0.3125 -0.4375,0 -0.75,-0.3125 -0.3125,-0.3125 -0.3125,-0.75 0,-1.1563 1.0546,-1.7188 1.0547,-0.5625 2.3204,-0.5625 0.8906,0 1.789,0.3829 0.8985,0.3828 1.4766,1.0859 0.5781,0.7031 0.5781,1.6562 v 4.9532 q 0,0.4218 0.1797,0.7812 0.1797,0.3594 0.5703,0.3594 0.3594,0 0.5391,-0.3594 0.1797,-0.3594 0.1797,-0.7812 v -1.4063 h 0.6406 v 1.4063 q 0,0.4843 -0.2578,0.9375 -0.2578,0.4531 -0.6875,0.7109 -0.4297,0.2578 -0.9453,0.2578 -0.6407,0 -1.1094,-0.5 -0.4688,-0.5 -0.5156,-1.1875 -0.4063,0.8281 -1.2032,1.3203 -0.7968,0.4922 -1.7031,0.4922 -0.8281,0 -1.6406,-0.25 -0.8125,-0.25 -1.3594,-0.7812 -0.5469,-0.5313 -0.5469,-1.375 z m 1.7969,0 q 0,0.7656 0.5625,1.2968 0.5625,0.5313 1.3438,0.5313 0.7031,0 1.289,-0.3594 0.586,-0.3594 0.9297,-0.9687 0.3438,-0.6094 0.3438,-1.2813 v -2.2969 q -1,0 -2.0469,0.3282 -1.0469,0.3281 -1.7344,1.0234 -0.6875,0.6953 -0.6875,1.7266 z"
             id="path6677"
             inkscape:connector-curvature="0" />
          <path
             style="stroke:none"
             d="m -35.1264,-7.9201 v -0.7812 q 0.7656,0 1.2421,-0.1172 0.4766,-0.1172 0.4766,-0.5703 v -6.0157 q 0,-0.5781 -0.1719,-0.8437 -0.1718,-0.2656 -0.5078,-0.3281 -0.3359,-0.0625 -1.039,-0.0625 v -0.7657 l 3.1562,-0.2343 v 2.1406 q 0.3594,-0.9531 1.0078,-1.5469 0.6485,-0.5937 1.586,-0.5937 0.6562,0 1.1718,0.3828 0.5157,0.3828 0.5157,1.0234 0,0.3906 -0.2813,0.6875 -0.2812,0.2969 -0.7031,0.2969 -0.4063,0 -0.6953,-0.2891 -0.2891,-0.289 -0.2891,-0.6953 0,-0.5937 0.4219,-0.8437 h -0.1406 q -0.8907,0 -1.4532,0.6484 -0.5625,0.6484 -0.7968,1.6016 -0.2344,0.9531 -0.2344,1.8281 v 3.6094 q 0,0.6875 2.1406,0.6875 v 0.7812 z"
             id="path6679"
             inkscape:connector-curvature="0" />
          <path
             style="stroke:none"
             d="m -21.6973,-7.6701 q -1.2968,0 -2.375,-0.7031 -1.0781,-0.7031 -1.6718,-1.8516 -0.5938,-1.1484 -0.5938,-2.4453 0,-1.3281 0.6485,-2.4765 0.6484,-1.1485 1.7656,-1.8204 1.1172,-0.6718 2.4609,-0.6718 0.7969,0 1.5235,0.3359 0.7265,0.3359 1.2421,0.9453 v -4.5781 q 0,-0.5938 -0.1718,-0.8594 -0.1719,-0.2656 -0.5,-0.3203 -0.3282,-0.0547 -1.0313,-0.0547 v -0.7812 l 3.25,-0.2344 v 13.2656 q 0,0.5781 0.1797,0.8438 0.1797,0.2656 0.5078,0.3203 0.3281,0.0547 1.0313,0.0547 v 0.7812 l -3.3282,0.25 v -1.3906 q -0.5625,0.6562 -1.3515,1.0234 -0.7891,0.3672 -1.586,0.3672 z m -2.25,-2.1562 q 0.375,0.7187 1.0079,1.1484 0.6328,0.4297 1.3671,0.4297 0.9063,0 1.6719,-0.5313 0.7656,-0.5312 1.1406,-1.3593 v -5.2813 q -0.25,-0.4844 -0.6484,-0.8672 -0.3984,-0.3828 -0.8828,-0.5859 -0.4844,-0.2031 -1.0313,-0.2031 -1.1562,0 -1.8515,0.6484 -0.6953,0.6484 -0.9766,1.6641 -0.2812,1.0156 -0.2812,2.1093 0,0.8907 0.0937,1.5469 0.0938,0.6563 0.3906,1.2813 z"
             id="path6681"
             inkscape:connector-curvature="0" />
          <path
             style="stroke:none"
             d="m -5.5167,-9.1545 q 0.3906,0.5625 1.0235,0.8516 0.6328,0.2891 1.3671,0.2891 0.7032,0 1.1875,-0.4844 0.4844,-0.4844 0.7266,-1.2109 0.2422,-0.7266 0.2422,-1.3985 v -10.375 q 0,-0.6875 -2.9375,-0.6875 v -0.7812 h 6.625 v 0.7812 q -0.75,0 -1.2188,0.1172 -0.4687,0.1172 -0.4687,0.5703 v 10.4531 q 0,1.0625 -0.6094,1.875 -0.6094,0.8125 -1.5703,1.2657 -0.9609,0.4531 -1.9766,0.4531 -0.9062,0 -1.7187,-0.3594 -0.8125,-0.3594 -1.3359,-1.039 -0.5235,-0.6797 -0.5235,-1.586 0,-0.5469 0.3672,-0.914 0.3672,-0.3672 0.9141,-0.3672 0.3593,0 0.6484,0.164 0.2891,0.1641 0.4531,0.4688 0.1641,0.3047 0.1641,0.6484 0,0.5313 -0.3672,0.8985 -0.3672,0.3671 -0.8984,0.3671 z"
             id="path6683"
             inkscape:connector-curvature="0" />
          <path
             style="stroke:none"
             d="m 9.2889,-7.6701 q -1.3281,0 -2.4531,-0.6719 -1.125,-0.6718 -1.7813,-1.8046 -0.6562,-1.1329 -0.6562,-2.461 0,-1 0.3594,-1.9375 0.3593,-0.9375 1.0312,-1.6719 0.6719,-0.7343 1.5625,-1.1484 0.8906,-0.4141 1.9375,-0.4141 1.3594,0 2.4688,0.711 1.1093,0.7109 1.75,1.914 0.6406,1.2032 0.6406,2.5469 0,1.3281 -0.6485,2.461 -0.6484,1.1328 -1.7734,1.8046 -1.125,0.6719 -2.4375,0.6719 z m 0,-0.6406 q 1.7656,0 2.3516,-1.2813 0.5859,-1.2812 0.5859,-3.2656 0,-1.0937 -0.1172,-1.8203 -0.1172,-0.7266 -0.5078,-1.3203 -0.25,-0.3594 -0.6328,-0.6328 -0.3828,-0.2735 -0.8047,-0.4219 -0.4219,-0.1484 -0.875,-0.1484 -0.6875,0 -1.3047,0.3125 -0.6172,0.3125 -1.0234,0.8906 -0.4063,0.625 -0.5235,1.3672 -0.1171,0.7422 -0.1171,1.7734 0,1.2344 0.2187,2.2188 0.2188,0.9843 0.8672,1.6562 0.6484,0.6719 1.8828,0.6719 z"
             id="path6685"
             inkscape:connector-curvature="0" />
          <path
             style="stroke:none"
             d="m 15.4452,-7.9201 v -0.7812 q 0.75,0 1.2344,-0.1172 0.4843,-0.1172 0.4843,-0.5703 v -6.0157 q 0,-0.5781 -0.1797,-0.8437 -0.1796,-0.2656 -0.5078,-0.3281 -0.3281,-0.0625 -1.0312,-0.0625 v -0.7657 l 3.1875,-0.2343 v 2.1406 q 0.4375,-0.9375 1.3047,-1.5391 0.8672,-0.6015 1.8828,-0.6015 1.5312,0 2.2969,0.7265 0.7656,0.7266 0.7656,2.2422 v 5.2813 q 0,0.4531 0.4844,0.5703 0.4843,0.1172 1.2343,0.1172 v 0.7812 h -5.0312 v -0.7812 q 0.75,0 1.2344,-0.1172 0.4843,-0.1172 0.4843,-0.5703 v -5.2188 q 0,-1.0781 -0.3125,-1.7734 -0.3125,-0.6953 -1.2812,-0.6953 -1.2813,0 -2.1016,1.0234 -0.8203,1.0234 -0.8203,2.3203 v 4.3438 q 0,0.4531 0.4844,0.5703 0.4844,0.1172 1.2187,0.1172 v 0.7812 z"
             id="path6687"
             inkscape:connector-curvature="0" />
          <path
             style="stroke:none"
             d="m 32.4956,-7.6701 q -1.3438,0 -2.4688,-0.7031 -1.125,-0.7031 -1.7656,-1.8828 -0.6406,-1.1797 -0.6406,-2.4922 0,-1.2813 0.5859,-2.4453 0.5859,-1.1641 1.6328,-1.875 1.0469,-0.711 2.3438,-0.711 1,0 1.75,0.336 0.75,0.3359 1.2343,0.9375 0.4844,0.6015 0.7266,1.4219 0.2422,0.8203 0.2422,1.789 0,0.2969 -0.2188,0.2969 h -6.375 v 0.2344 q 0,1.8281 0.7344,3.1406 0.7344,1.3125 2.4063,1.3125 0.6718,0 1.25,-0.3047 0.5781,-0.3047 1,-0.8437 0.4218,-0.5391 0.5781,-1.1485 0.0156,-0.0781 0.0781,-0.1328 0.0625,-0.0547 0.1406,-0.0547 h 0.1875 q 0.2188,0 0.2188,0.2813 -0.3125,1.2343 -1.3438,2.039 -1.0312,0.8047 -2.2968,0.8047 z m -2.9219,-5.875 h 5.0156 q 0,-0.8281 -0.2344,-1.6797 -0.2343,-0.8515 -0.7734,-1.414 -0.5391,-0.5625 -1.3984,-0.5625 -1.25,0 -1.9297,1.164 -0.6797,1.1641 -0.6797,2.4922 z"
             id="path6689"
             inkscape:connector-curvature="0" />
          <path
             style="stroke:none"
             d="m 37.5233,-7.8576 v -3.5937 q 0,-0.1719 0.1875,-0.1719 h 0.2657 q 0.1406,0 0.1718,0.1719 0.625,3.2031 2.9688,3.2031 1.0469,0 1.75,-0.4766 0.7031,-0.4765 0.7031,-1.4609 0,-0.7031 -0.5469,-1.2031 -0.5468,-0.5 -1.2968,-0.6875 l -1.4844,-0.2969 q -0.7344,-0.1563 -1.3438,-0.4922 -0.6093,-0.3359 -0.9921,-0.8828 -0.3829,-0.5469 -0.3829,-1.2813 0,-0.9687 0.5079,-1.5859 0.5078,-0.6172 1.3281,-0.8906 0.8203,-0.2735 1.7578,-0.2735 1.125,0 1.9687,0.5938 l 0.625,-0.5469 q 0,-0.0469 0.1094,-0.0469 h 0.1719 q 0.0625,0 0.1172,0.0547 0.0547,0.0547 0.0547,0.1328 v 2.875 q 0,0.2032 -0.1719,0.2032 h -0.2813 q -0.1875,0 -0.1875,-0.2032 0,-1.1562 -0.6406,-1.8515 -0.6406,-0.6953 -1.7812,-0.6953 -1,0 -1.7188,0.3672 -0.7187,0.3671 -0.7187,1.2578 0,0.6093 0.5156,1 0.5156,0.3906 1.2187,0.5625 l 1.5,0.2812 q 0.75,0.1719 1.3985,0.5781 0.6484,0.4063 1.0312,1.0313 0.3828,0.625 0.3828,1.4062 0,0.7969 -0.2734,1.3829 -0.2734,0.5859 -0.7656,0.9687 -0.4922,0.3828 -1.1563,0.5703 -0.664,0.1875 -1.3984,0.1875 -1.375,0 -2.3438,-0.9219 l -0.8125,0.8594 q 0,0.0625 -0.125,0.0625 h -0.125 q -0.1875,0 -0.1875,-0.1875 z"
             id="path6691"
             inkscape:connector-curvature="0" />
          <path
             style="stroke:none"
             d="m 53.5344,-7.9201 v -0.7812 q 2.2657,0 2.2657,-0.6875 v -12.0938 q 0,-0.6875 -2.2657,-0.6875 v -0.7812 h 7.8282 q 1.2031,0 2.4062,0.4922 1.2031,0.4921 1.9844,1.4375 0.7812,0.9453 0.7812,2.2109 0,1.2187 -0.789,2.1406 -0.7891,0.9219 -1.9766,1.4063 -1.1875,0.4843 -2.4062,0.4843 h -3.5313 v 5.3907 q 0,0.6875 2.2813,0.6875 v 0.7812 z m 4.2344,-7.5156 h 2.9844 q 1.2187,0 1.9687,-0.3516 0.75,-0.3515 1.1016,-1.0859 0.3516,-0.7344 0.3516,-1.9375 0,-1.7969 -0.7891,-2.5781 -0.7891,-0.7813 -2.6328,-0.7813 h -1.8594 q -0.4062,0 -0.625,0.0313 -0.2187,0.0312 -0.3594,0.1875 -0.1406,0.1562 -0.1406,0.4687 z"
             id="path6693"
             inkscape:connector-curvature="0" />
          <path
             style="stroke:none"
             d="m 72.6612,-7.6701 q -1.3281,0 -2.4531,-0.6719 -1.125,-0.6718 -1.7813,-1.8046 -0.6562,-1.1329 -0.6562,-2.461 0,-1 0.3594,-1.9375 0.3593,-0.9375 1.0312,-1.6719 0.6719,-0.7343 1.5625,-1.1484 0.8906,-0.4141 1.9375,-0.4141 1.3594,0 2.4688,0.711 1.1093,0.7109 1.75,1.914 0.6406,1.2032 0.6406,2.5469 0,1.3281 -0.6485,2.461 -0.6484,1.1328 -1.7734,1.8046 -1.125,0.6719 -2.4375,0.6719 z m 0,-0.6406 q 1.7656,0 2.3516,-1.2813 0.5859,-1.2812 0.5859,-3.2656 0,-1.0937 -0.1172,-1.8203 -0.1172,-0.7266 -0.5078,-1.3203 -0.25,-0.3594 -0.6328,-0.6328 -0.3828,-0.2735 -0.8047,-0.4219 -0.4219,-0.1484 -0.875,-0.1484 -0.6875,0 -1.3047,0.3125 -0.6172,0.3125 -1.0234,0.8906 -0.4063,0.625 -0.5235,1.3672 -0.1171,0.7422 -0.1171,1.7734 0,1.2344 0.2187,2.2188 0.2188,0.9843 0.8672,1.6562 0.6484,0.6719 1.8828,0.6719 z"
             id="path6695"
             inkscape:connector-curvature="0" />
          <path
             style="stroke:none"
             d="m 80.4112,-10.5607 v -6.0781 h -1.8281 v -0.5625 q 1.4375,0 2.1172,-1.3438 0.6797,-1.3437 0.6797,-2.9062 h 0.625 v 4.0468 h 3.1094 v 0.7657 H 82.005 v 6.0312 q 0,0.9219 0.3047,1.6094 0.3047,0.6875 1.1015,0.6875 0.75,0 1.086,-0.7266 0.3359,-0.7265 0.3359,-1.5703 v -1.2969 h 0.6406 v 1.3438 q 0,0.6875 -0.2578,1.3594 -0.2578,0.6718 -0.75,1.1015 -0.4922,0.4297 -1.1953,0.4297 -1.3281,0 -2.0937,-0.789 -0.7657,-0.7891 -0.7657,-2.1016 z"
             id="path6697"
             inkscape:connector-curvature="0" />
          <path
             style="stroke:none"
             d="m 92.2012,-7.6701 q -1.3438,0 -2.4688,-0.7031 -1.125,-0.7031 -1.7656,-1.8828 -0.6406,-1.1797 -0.6406,-2.4922 0,-1.2813 0.5859,-2.4453 0.586,-1.1641 1.6328,-1.875 1.0469,-0.711 2.3438,-0.711 1,0 1.75,0.336 0.75,0.3359 1.2344,0.9375 0.4843,0.6015 0.7265,1.4219 0.2422,0.8203 0.2422,1.789 0,0.2969 -0.2187,0.2969 h -6.375 v 0.2344 q 0,1.8281 0.7343,3.1406 0.7344,1.3125 2.4063,1.3125 0.6719,0 1.25,-0.3047 0.5781,-0.3047 1,-0.8437 0.4219,-0.5391 0.5781,-1.1485 0.0156,-0.0781 0.0781,-0.1328 0.0625,-0.0547 0.1407,-0.0547 h 0.1875 q 0.2187,0 0.2187,0.2813 -0.3125,1.2343 -1.3437,2.039 -1.0313,0.8047 -2.2969,0.8047 z m -2.9219,-5.875 h 5.0156 q 0,-0.8281 -0.2343,-1.6797 -0.2344,-0.8515 -0.7735,-1.414 -0.539,-0.5625 -1.3984,-0.5625 -1.25,0 -1.9297,1.164 -0.6797,1.1641 -0.6797,2.4922 z"
             id="path6699"
             inkscape:connector-curvature="0" />
          <path
             style="stroke:none"
             d="m 97.1508,-7.9201 v -0.7812 q 0.75,0 1.2344,-0.1172 0.4844,-0.1172 0.4844,-0.5703 v -6.0157 q 0,-0.5781 -0.1797,-0.8437 -0.1797,-0.2656 -0.5078,-0.3281 -0.3281,-0.0625 -1.0313,-0.0625 v -0.7657 l 3.1875,-0.2343 v 2.1406 q 0.4375,-0.9375 1.3047,-1.5391 0.8672,-0.6015 1.8828,-0.6015 1.5313,0 2.2969,0.7265 0.7656,0.7266 0.7656,2.2422 v 5.2813 q 0,0.4531 0.4844,0.5703 0.4844,0.1172 1.2344,0.1172 v 0.7812 h -5.0313 v -0.7812 q 0.75,0 1.2344,-0.1172 0.4844,-0.1172 0.4844,-0.5703 v -5.2188 q 0,-1.0781 -0.3125,-1.7734 -0.3125,-0.6953 -1.2813,-0.6953 -1.2812,0 -2.1015,1.0234 -0.8203,1.0234 -0.8203,2.3203 v 4.3438 q 0,0.4531 0.4843,0.5703 0.4844,0.1172 1.2188,0.1172 v 0.7812 z"
             id="path6701"
             inkscape:connector-curvature="0" />
          <path
             style="stroke:none"
             d="m 110.3557,-10.5607 v -6.0781 h -1.8281 v -0.5625 q 1.4375,0 2.1172,-1.3438 0.6797,-1.3437 0.6797,-2.9062 h 0.625 v 4.0468 h 3.1093 v 0.7657 h -3.1093 v 6.0312 q 0,0.9219 0.3047,1.6094 0.3046,0.6875 1.1015,0.6875 0.75,0 1.086,-0.7266 0.3359,-0.7265 0.3359,-1.5703 v -1.2969 h 0.6406 v 1.3438 q 0,0.6875 -0.2578,1.3594 -0.2578,0.6718 -0.75,1.1015 -0.4922,0.4297 -1.1953,0.4297 -1.3281,0 -2.0938,-0.789 -0.7656,-0.7891 -0.7656,-2.1016 z"
             id="path6703"
             inkscape:connector-curvature="0" />
          <path
             style="stroke:none"
             d="m 117.3332,-7.9201 v -0.7812 q 0.75,0 1.2344,-0.1172 0.4843,-0.1172 0.4843,-0.5703 v -6.0157 q 0,-0.8437 -0.3281,-1.039 -0.3281,-0.1953 -1.2812,-0.1953 v -0.7657 l 3.1562,-0.2343 v 8.25 q 0,0.4531 0.4219,0.5703 0.4219,0.1172 1.125,0.1172 v 0.7812 z m 0.9375,-13.5 q 0,-0.4844 0.3672,-0.8515 0.3672,-0.3672 0.8359,-0.3672 0.3125,0 0.6016,0.164 0.289,0.1641 0.4531,0.4532 0.1641,0.289 0.1641,0.6015 0,0.4688 -0.3672,0.836 -0.3672,0.3671 -0.8516,0.3671 -0.4687,0 -0.8359,-0.3671 -0.3672,-0.3672 -0.3672,-0.836 z"
             id="path6705"
             inkscape:connector-curvature="0" />
          <path
             style="stroke:none"
             d="m 123.6474,-10.0763 q 0,-1.3125 1.0313,-2.1328 1.0312,-0.8204 2.4765,-1.1641 1.4454,-0.3438 2.7579,-0.3438 v -0.8906 q 0,-0.6406 -0.2813,-1.2344 -0.2812,-0.5937 -0.8125,-0.9765 -0.5312,-0.3828 -1.1562,-0.3828 -1.4688,0 -2.2188,0.6562 0.4063,0 0.6797,0.3125 0.2734,0.3125 0.2734,0.7344 0,0.4375 -0.3047,0.75 -0.3046,0.3125 -0.7421,0.3125 -0.4375,0 -0.75,-0.3125 -0.3125,-0.3125 -0.3125,-0.75 0,-1.1563 1.0546,-1.7188 1.0547,-0.5625 2.3204,-0.5625 0.8906,0 1.789,0.3829 0.8985,0.3828 1.4766,1.0859 0.5781,0.7031 0.5781,1.6562 v 4.9532 q 0,0.4218 0.1797,0.7812 0.1797,0.3594 0.5703,0.3594 0.3594,0 0.5391,-0.3594 0.1797,-0.3594 0.1797,-0.7812 v -1.4063 h 0.6406 v 1.4063 q 0,0.4843 -0.2578,0.9375 -0.2578,0.4531 -0.6875,0.7109 -0.4297,0.2578 -0.9453,0.2578 -0.6407,0 -1.1094,-0.5 -0.4688,-0.5 -0.5156,-1.1875 -0.4063,0.8281 -1.2032,1.3203 -0.7968,0.4922 -1.7031,0.4922 -0.8281,0 -1.6406,-0.25 -0.8125,-0.25 -1.3594,-0.7812 -0.5469,-0.5313 -0.5469,-1.375 z m 1.7969,0 q 0,0.7656 0.5625,1.2968 0.5625,0.5313 1.3438,0.5313 0.7031,0 1.289,-0.3594 0.586,-0.3594 0.9297,-0.9687 0.3438,-0.6094 0.3438,-1.2813 v -2.2969 q -1,0 -2.0469,0.3282 -1.0469,0.3281 -1.7344,1.0234 -0.6875,0.6953 -0.6875,1.7266 z"
             id="path6707"
             inkscape:connector-curvature="0" />
          <path
             style="stroke:none"
             d="m 134.4443,-7.9201 v -0.7812 q 0.75,0 1.2344,-0.1172 0.4844,-0.1172 0.4844,-0.5703 v -11.5469 q 0,-0.5938 -0.1719,-0.8594 -0.1719,-0.2656 -0.5078,-0.3203 -0.3359,-0.0547 -1.0391,-0.0547 v -0.7812 l 3.2657,-0.2344 v 13.7969 q 0,0.4531 0.4843,0.5703 0.4844,0.1172 1.2344,0.1172 v 0.7812 z"
             id="path6709"
             inkscape:connector-curvature="0" />
        </g>
      </g>
    </g>
    <g
       style="color-interpolation:linearRGB;fill:#0072bd;stroke:#0072bd;stroke-linecap:butt;stroke-linejoin:round;color-rendering:optimizeQuality;image-rendering:optimizeQuality;text-rendering:geometricPrecision"
       id="g6715">
      <path
         d="m 109,51.9781 0.5425,10.2507 0.5425,10.0586 0.5425,9.8701 0.5425,9.685 0.5425,9.5035 0.5425,9.3252 0.5425,9.1501 0.5425,8.9785 0.5425,8.8099 0.5425,8.6445 0.5425,8.4821 0.5425,8.3226 0.5425,8.1662 0.5425,8.0126 0.5425,7.8619 0.5425,7.7138 0.5425,7.5686 0.5425,7.426 0.5425,7.2861 0.5425,7.1486 0.5425,7.0137 0.5425,6.8813 0.5425,6.7513 0.5425,6.6237 0.5425,6.4984 0.5425,6.3755 0.5425,6.2547 0.5425,6.1362 0.5425,6.0198 0.5425,5.9056 0.5425,5.7933 0.5425,5.6834 0.5425,5.5752 0.5425,5.469 0.5425,5.3649 0.5425,5.2626 0.5425,5.1621 0.5425,5.0635 0.5425,4.9667 0.5425,4.8717 0.5425,4.7783 0.5425,4.6866 0.5425,4.5967 0.5425,4.5084 0.5425,4.4216 0.5425,4.3364 0.5425,4.2529 0.5425,4.1707 0.5425,4.0901 0.5425,4.0109 0.5425,3.9332 0.5425,3.8569 0.5425,3.782 0.5425,3.7084 0.5425,3.6361 0.5425,3.5652 0.5425,3.4955 0.5425,3.4271 0.5425,3.36 0.5425,3.294 0.5425,3.2292 0.5425,3.1657 0.5425,3.1032 0.5425,3.0419 0.5425,2.9816 0.5425,2.9226 0.5425,2.8645 0.5425,2.8074 0.5425,2.7515 0.5425,2.6965 0.5425,2.6426 0.5425,2.5895 0.5425,2.5375 0.5425,2.4863 0.5425,2.4362 0.5425,2.3869 0.5425,2.3384 0.5425,2.291 0.5425,2.2442 0.5425,2.1984 0.5425,2.1535 0.5425,2.1092 0.5425,2.0658 0.5425,2.0232 0.5425,1.9814 0.5425,1.9403 0.5425,1.8999 0.5425,1.8603 0.5425,1.8213 0.5425,1.7832 0.5425,1.7456 0.5425,1.7088 0.5425,1.6726 0.5425,1.6371 0.5425,1.6022 0.5425,1.5679 0.5425,1.5343 0.5425,1.5013 0.5425,1.4688 0.5425,1.437 0.5425,1.4057 0.5425,1.3749 0.5425,1.3448 0.5425,1.3153 0.5425,1.2861 0.5425,1.2576 0.5425,1.2295 0.5425,1.2021 0.5425,1.175 0.5425,1.1485 0.5425,1.1223 0.5425,1.0968 0.5425,1.0717 0.5425,1.0471 0.5425,1.0228 0.5425,0.9991 0.5425,0.9757 0.5425,0.9527 0.5425,0.9303 0.5425,0.9082 0.5425,0.8864 0.5425,0.8652 0.5425,0.8443 0.5425,0.8237 0.5425,0.8036 0.5425,0.7838 0.5425,0.7644 0.5425,0.7453 0.5425,0.7266 0.5425,0.7082 0.5425,0.6902 0.5425,0.6724 0.5425,0.6551 0.5425,0.638 0.5425,0.6213 0.5425,0.6048 0.5425,0.5887 0.5425,0.5728 0.5425,0.5573 0.5425,0.542 0.5425,0.5271 0.5425,0.5123 0.5425,0.4979 0.5425,0.4838 0.5425,0.4698 0.5425,0.4562 0.5425,0.4428 0.5425,0.4297 0.5425,0.4168 0.5425,0.4041 0.5425,0.3917 0.5425,0.3795 0.5425,0.3676 0.5425,0.3558 0.5425,0.3443 0.5425,0.333 0.5425,0.3219 0.5425,0.3111 0.5425,0.3004 0.5425,0.2899 0.5425,0.2796 0.5425,0.2696 0.5425,0.2597 0.5425,0.25 0.5425,0.2405 0.5425,0.2312 0.5425,0.222 0.5425,0.2131 0.5425,0.2042 0.5425,0.1956 0.5425,0.1872 0.5425,0.1788 0.5425,0.1706 0.5425,0.1628 0.5425,0.1548 0.5425,0.1472 0.5425,0.1397 0.5425,0.1323 0.5425,0.1251 0.5425,0.1179 0.5425,0.111 0.5425,0.1041 0.5425,0.0976 0.5425,0.0909 0.5425,0.0845 0.5425,0.0782 0.5425,0.0721 0.5425,0.066 0.5425,0.0601 0.5425,0.0543 0.5425,0.0486 0.5425,0.043 0.5425,0.0375 0.5425,0.0322 0.5425,0.027 0.5425,0.0218 0.5425,0.0169 0.5425,0.0118 0.5425,0.007 0.5425,0.002 0.5425,-0.002 0.5425,-0.007 0.5425,-0.0113 0.5425,-0.0156 0.5425,-0.0198 0.5425,-0.024 0.5425,-0.0282 0.5425,-0.032 0.5425,-0.036 0.5425,-0.0398 0.5425,-0.0435 0.5425,-0.0472 0.5425,-0.0508 0.5425,-0.0543 0.5425,-0.0576 0.5425,-0.0611 0.5425,-0.0642 0.5425,-0.0675 0.5425,-0.0707 0.5425,-0.0736 0.5425,-0.0768 0.5425,-0.0795 0.5425,-0.0825 0.5425,-0.0853 0.5425,-0.0879 0.5425,-0.0907 0.5425,-0.0932 0.5425,-0.0958 0.5425,-0.0983 0.5425,-0.1006 0.5425,-0.1031 0.5425,-0.1053 0.5425,-0.1076 0.5425,-0.1099 0.5425,-0.1119 0.5425,-0.1141 0.5425,-0.1161 0.5425,-0.1181 0.5425,-0.12 0.5425,-0.122 0.5425,-0.1237 0.5425,-0.1256 0.5425,-0.1273 0.5425,-0.129 0.5425,-0.1307 0.5425,-0.1323 0.5425,-0.1339 0.5425,-0.1354 0.5425,-0.1369 0.5425,-0.1383 0.5425,-0.1398 0.5425,-0.1411 0.5425,-0.1425 0.5425,-0.1437 0.5425,-0.145 0.5425,-0.1463 0.5425,-0.1474 0.5425,-0.1485 0.5425,-0.1497 0.5425,-0.1507 0.5425,-0.1518 0.5425,-0.1529 0.5425,-0.1538 0.5425,-0.1547 0.5425,-0.1557 0.5425,-0.1565 0.5425,-0.1575 0.5425,-0.1582 0.5425,-0.1591 0.5425,-0.1598 0.5425,-0.1606 0.5425,-0.1613 0.5425,-0.162 0.5425,-0.1626 0.5425,-0.1633 0.5425,-0.1639 0.5425,-0.1645 0.5425,-0.1651 0.5425,-0.1655 0.5425,-0.1662 0.5425,-0.1666 0.5425,-0.1671 0.5425,-0.1675 0.5425,-0.168 0.5425,-0.1684 0.5425,-0.1688 0.5425,-0.1691 0.5425,-0.1695 0.5425,-0.1698 0.5425,-0.1702 0.5425,-0.1704 0.5425,-0.1706 0.5425,-0.171 0.5425,-0.1712 0.5425,-0.1714 0.5425,-0.1716 0.5425,-0.1718 0.5425,-0.172 0.5425,-0.1721 0.5425,-0.1722 0.5425,-0.1724 0.5425,-0.1725 0.5425,-0.1725 0.5425,-0.1727 0.5425,-0.1727 0.5425,-0.1728 0.5425,-0.1727 0.5425,-0.1729 0.5425,-0.1728 0.5425,-0.1728 0.5425,-0.1728 0.5425,-0.1728 0.5425,-0.1728 0.5425,-0.1726 0.5425,-0.1726 0.5425,-0.1726 0.5425,-0.1725 0.5425,-0.1723 0.5425,-0.1723 0.5425,-0.1721 0.5425,-0.172 0.5425,-0.1719 0.5425,-0.1716 0.5425,-0.1716 0.5425,-0.1714 0.5425,-0.1712 0.5425,-0.171 0.5425,-0.1709 0.5425,-0.1706 0.5425,-0.1704 0.5425,-0.1702 0.5425,-0.17 0.5425,-0.1697 0.5425,-0.1695 0.5425,-0.1693 0.5425,-0.169 0.5425,-0.1687 0.5425,-0.1684 0.5425,-0.1682 0.5425,-0.1679 0.5425,-0.1676 0.5425,-0.1673 0.5425,-0.167 0.5425,-0.1667 0.5425,-0.1663 0.5425,-0.1661 0.5425,-0.1657 0.5425,-0.1654 0.5425,-0.1651 0.5425,-0.1647 0.5425,-0.1644 0.5425,-0.164 0.5425,-0.1636 0.5425,-0.1633 0.5425,-0.1629 0.5425,-0.1626 0.5425,-0.1622 0.5425,-0.1618 0.5425,-0.1614 0.5425,-0.161 0.5425,-0.1607 0.5425,-0.1602 0.5425,-0.1598 0.5425,-0.1594 0.5425,-0.1591 0.5425,-0.1586 0.5425,-0.1582 0.5425,-0.1578 0.5425,-0.1574 0.5425,-0.157 0.5425,-0.1565 0.5425,-0.1561 0.5425,-0.1557 0.5425,-0.1552 0.5425,-0.1548 0.5425,-0.1544 0.5425,-0.154 0.5425,-0.1535 0.5425,-0.153 0.5425,-0.1526 0.5425,-0.1521 0.5425,-0.1518 0.5425,-0.1512 0.5425,-0.1508 0.5425,-0.1504 0.5425,-0.1498 0.5425,-0.1495 0.5425,-0.1489 0.5425,-0.1485 0.5425,-0.1481 0.5425,-0.1476 0.5425,-0.1471 0.5425,-0.1466 0.5425,-0.1462 0.5425,-0.1457 0.5425,-0.1453 0.5425,-0.1447 0.5425,-0.1443 0.5425,-0.1438 0.5425,-0.1434 0.5425,-0.1429 0.5425,-0.1424 0.5425,-0.1419 0.5425,-0.1414 0.5425,-0.141 0.5425,-0.1405 0.5425,-0.14 0.5425,-0.1395 0.5425,-0.1391 0.5425,-0.1386 0.5425,-0.138 0.5425,-0.1377 0.5425,-0.1371 0.5425,-0.1367 0.5425,-0.1361 0.5425,-0.1357 0.5425,-0.1353 0.5425,-0.1347 0.5425,-0.1343 0.5425,-0.1338 0.5425,-0.1332 0.5425,-0.1329 0.5425,-0.1323 0.5425,-0.1318 0.5425,-0.1314 0.5425,-0.1309 0.5425,-0.1304 0.5425,-0.13 0.5425,-0.1294 0.5425,-0.129 0.5425,-0.1285 0.5425,-0.128 0.5425,-0.1276 0.5425,-0.1271 0.5425,-0.1266 0.5425,-0.126 0.5425,-0.1257 0.5425,-0.1252 0.5425,-0.1247 0.5425,-0.1242 0.5425,-0.1238 0.5425,-0.1233 0.5425,-0.1228 0.5425,-0.1223 0.5425,-0.1219 0.5425,-0.1214 0.5425,-0.1209 0.5425,-0.1205 0.5425,-0.12 0.5425,-0.1195 0.5425,-0.1191 0.5425,-0.1186 0.5425,-0.1182 0.5425,-0.1176 0.5425,-0.1172 0.5425,-0.1168 0.5425,-0.1163 0.5425,-0.1159 0.5425,-0.1153 0.5425,-0.115 0.5425,-0.1145 0.5425,-0.114 0.5425,-0.1136 0.5425,-0.1131 0.5425,-0.1126 0.5425,-0.1123 0.5425,-0.1117 0.5425,-0.1114 0.5425,-0.1108 0.5425,-0.1104 0.5425,-0.11 0.5425,-0.1096 0.5425,-0.109 0.5425,-0.1087 0.5425,-0.1082 0.5425,-0.1078 0.5425,-0.1073 0.5425,-0.1069 0.5425,-0.1065 0.5425,-0.106 0.5425,-0.1056 0.5425,-0.1052 0.5425,-0.1047 0.5425,-0.1043 0.5425,-0.1039 0.5425,-0.1035 0.5425,-0.103 0.5425,-0.1027 0.5425,-0.1021 0.5425,-0.1018 0.5425,-0.1013 0.5425,-0.1009 0.5425,-0.1006 0.5425,-0.1 0.5425,-0.0997 0.5425,-0.0993 0.5425,-0.0988 0.5425,-0.0984 0.5425,-0.0981 0.5425,-0.0976 0.5425,-0.0972 0.5425,-0.0968 0.5425,-0.0964 0.5425,-0.096 0.5425,-0.0956 0.5425,-0.0952 0.5425,-0.0948 0.5425,-0.0944 0.5425,-0.094 0.5425,-0.0936 0.5425,-0.0933 0.5425,-0.0927 0.5425,-0.0925 0.5425,-0.092 0.5425,-0.0917 0.5425,-0.0913 0.5425,-0.0908 0.5425,-0.0906 0.5425,-0.0901 0.5425,-0.0897 0.5425,-0.0893 0.5425,-0.089 0.5425,-0.0886 0.5425,-0.0882 0.5425,-0.0879 0.5425,-0.0874 0.5425,-0.0872 0.5425,-0.0867 0.5425,-0.0864 0.5425,-0.086 0.5425,-0.0856 0.5425,-0.0852 0.5425,-0.0849 0.5425,-0.0846 0.5425,-0.0842 0.5425,-0.0838 0.5425,-0.0834 0.5425,-0.0831 0.5425,-0.0828 0.5425,-0.0824 0.5425,-0.082 0.5425,-0.0817 0.5425,-0.0814 0.5425,-0.081 0.5425,-0.0806 0.5425,-0.0803 0.5425,-0.08 0.5425,-0.0796 0.5425,-0.0792 0.5425,-0.079 0.5425,-0.0786 0.5425,-0.0782 0.5425,-0.0779 0.5425,-0.0776 0.5425,-0.0772 0.5425,-0.0769 0.5425,-0.0766 0.5425,-0.0763 0.5425,-0.0759 0.5425,-0.0756 0.5425,-0.0753 0.5425,-0.0749 0.5425,-0.0747 0.5425,-0.0743 0.5425,-0.0739 0.5425,-0.0737 0.5425,-0.0734 0.5425,-0.073 0.5425,-0.0727 0.5425,-0.0724 0.5425,-0.0721 0.5425,-0.0718 0.5425,-0.0714 0.5425,-0.0712 0.5425,-0.0708 0.5425,-0.0706 0.5425,-0.0702 0.5425,-0.07 0.5425,-0.0696 0.5425,-0.0693 0.5425,-0.069 0.5425,-0.0688 0.5425,-0.0684 0.5425,-0.0681 0.5425,-0.0679 0.5425,-0.0675 0.5425,-0.0673 0.5425,-0.0669 0.5425,-0.0667 0.5425,-0.0664 0.5425,-0.0661 0.5425,-0.0658 0.5425,-0.0655 0.5425,-0.0653 0.5425,-0.065 0.5425,-0.0646 0.5425,-0.0644 0.5425,-0.0642 0.5425,-0.0638 0.5425,-0.0635 0.5425,-0.0633 0.5425,-0.0631 0.5425,-0.0627 0.5425,-0.0625 0.5425,-0.0622 0.5425,-0.0619 0.5425,-0.0617 0.5425,-0.0614 0.5425,-0.0611 0.5425,-0.0609 0.5425,-0.0605 0.5425,-0.0604 0.5425,-0.0601 0.5425,-0.0598 0.5425,-0.0595 0.5425,-0.0593 0.5425,-0.0591 0.5425,-0.0587 0.5425,-0.0586 0.5425,-0.0582 0.5425,-0.0581 0.5425,-0.0577 0.5425,-0.0576 0.5425,-0.0572 0.5425,-0.0571 0.5425,-0.0567 0.5425,-0.0566 0.5425,-0.0562 0.5425,-0.0561 0.5425,-0.0558 0.5425,-0.0555 0.5425,-0.0554 0.5425,-0.0551 0.5425,-0.0548 0.5425,-0.0546 0.5425,-0.0544 0.5425,-0.0541 0.5425,-0.0539 0.5425,-0.0537 0.5425,-0.0534 0.5425,-0.0532 0.5425,-0.053 0.5425,-0.0527 0.5425,-0.0525 0.5425,-0.0523 0.5425,-0.0521 0.5425,-0.0518 0.5425,-0.0516 0.5425,-0.0514 0.5425,-0.0511 0.5425,-0.051 0.5425,-0.0507 0.5425,-0.0505 0.5425,-0.0503 0.5425,-0.0501 0.5425,-0.0498 0.5425,-0.0497 0.5425,-0.0494 0.5425,-0.0492 0.5425,-0.049 0.5425,-0.0488 0.5425,-0.0486 0.5425,-0.0484 0.5425,-0.0481 0.5425,-0.048 0.5425,-0.0477 0.5425,-0.0475 0.5425,-0.0474 0.5425,-0.0471 0.5425,-0.047 0.5425,-0.0467 0.5425,-0.0465 0.5425,-0.0463 0.5425,-0.0462 0.5425,-0.0459 0.5425,-0.0457 0.5425,-0.0455 0.5425,-0.0454 0.5425,-0.0451 0.5425,-0.045 0.5425,-0.0447 0.5425,-0.0446 0.5425,-0.0444 0.5425,-0.0442 0.5425,-0.044 0.5425,-0.0438 0.5425,-0.0436 0.5425,-0.0434 0.5425,-0.0432 0.5425,-0.0431 0.5425,-0.0429 0.5425,-0.0427 0.5425,-0.0425 0.5425,-0.0423 0.5425,-0.0422 0.5425,-0.0419 0.5425,-0.0418 0.5425,-0.0416 0.5425,-0.0414 0.5425,-0.0413 0.5425,-0.0411 0.5425,-0.0409 0.5425,-0.0407 0.5425,-0.0405 0.5425,-0.0404 0.5425,-0.0402 0.5425,-0.0401 0.5425,-0.0398 0.5425,-0.0397 0.5425,-0.0395 0.5425,-0.0394 0.5425,-0.0392 0.5425,-0.039 0.5425,-0.0389 0.5425,-0.0386 0.5425,-0.0386 0.5425,-0.0383 0.5425,-0.0383 0.5425,-0.038 0.5425,-0.0379 0.5425,-0.0377 0.5425,-0.0375 0.5425,-0.0374 0.5425,-0.0373 0.5425,-0.037 0.5425,-0.037 0.5425,-0.0367 0.5425,-0.0366 0.5425,-0.0365 0.5425,-0.0363 0.5425,-0.0361 0.5425,-0.036 0.5425,-0.0358 0.5425,-0.0357 0.5425,-0.0356 0.5425,-0.0353 0.5425,-0.0353 0.5425,-0.0351 0.5425,-0.0349 0.5425,-0.0348 0.5425,-0.0347 0.5425,-0.0345 0.5425,-0.0343 0.5425,-0.0342 0.5425,-0.0341 0.5425,-0.0339 0.5425,-0.0338 0.5425,-0.0336 0.5425,-0.0335 0.5425,-0.0334 0.5425,-0.0332 0.5425,-0.0331 0.5425,-0.0329 0.5425,-0.0328 0.5425,-0.0327 0.5425,-0.0325 0.5425,-0.0323 0.5425,-0.0323 0.5425,-0.0321 0.5425,-0.032 0.5425,-0.0318 0.5425,-0.0318 0.5425,-0.0315 0.5425,-0.0315 0.5425,-0.0313 0.5425,-0.0312 0.5425,-0.031 0.5425,-0.031 0.5425,-0.0307 0.5425,-0.0307 0.5425,-0.0306 0.5425,-0.0304 0.5425,-0.0302 0.5425,-0.0302 0.5425,-0.03 0.5425,-0.03 0.5425,-0.0297 0.5425,-0.0297 0.5425,-0.0295 0.5425,-0.0294 0.5425,-0.0293 0.5425,-0.0292 0.5425,-0.029 0.5425,-0.029 0.5425,-0.0288 0.5425,-0.0286 0.5425,-0.0286 0.5426,-0.0285 0.5424,-0.0283 0.5425,-0.0282 0.5425,-0.0281 0.5425,-0.028 0.5425,-0.0278 0.5425,-0.0278 0.5425,-0.0276 0.5425,-0.0275 0.5425,-0.0274 0.5425,-0.0273 0.5425,-0.0272 0.5425,-0.0271 0.5425,-0.0269 0.5425,-0.0269 0.5425,-0.0267 0.5425,-0.0266 0.5425,-0.0265 0.5424,-0.0264 0.5426,-0.0263 0.5425,-0.0262 0.5425,-0.0261 0.5425,-0.0259 0.5425,-0.0259 0.5425,-0.0258 0.5425,-0.0256 0.5425,-0.0256 0.5425,-0.0254 0.5426,-0.0254 0.5424,-0.0252 0.5425,-0.0251 0.5425,-0.0251 0.5425,-0.0249 0.5425,-0.0248 0.5425,-0.0247 0.5425,-0.0246 0.5425,-0.0245 0.5425,-0.0245 0.5425,-0.0243 0.5425,-0.0242 0.5425,-0.0241 0.5425,-0.024 0.5425,-0.024 0.5425,-0.0238 0.5425,-0.0237 0.5425,-0.0237 0.5424,-0.0235 0.5426,-0.0234 0.5425,-0.0234 0.5425,-0.0232 0.5425,-0.0232 0.5425,-0.0231 0.5425,-0.0229 0.5425,-0.0229 0.5425,-0.0228 0.5425,-0.0227 0.5426,-0.0226 0.5424,-0.0225 0.5425,-0.0224 0.5425,-0.0223 0.5425,-0.0222 0.5425,-0.0222 0.5425,-0.022 0.5425,-0.022 0.5425,-0.0219 0.5425,-0.0218 0.5425,-0.0217 0.5425,-0.0216 0.5425,-0.0215 0.5425,-0.0214 0.5425,-0.0214 0.5425,-0.0212 0.5425,-0.0212 0.5425,-0.0211 0.5424,-0.021 0.5426,-0.0209 0.5425,-0.0209 0.5425,-0.0208 0.5425,-0.0206 0.5425,-0.0206 0.5425,-0.0205 0.5425,-0.0205 0.5425,-0.0203 0.5425,-0.0202 0.5425,-0.0202 0.5425,-0.0201 0.5425,-0.02 0.5425,-0.02 0.5425,-0.0198 0.5425,-0.0198 0.5425,-0.0197 0.5425,-0.0197 0.5425,-0.0195 0.5425,-0.0195 0.5425,-0.0194 0.5425,-0.0192 0.5425,-0.0193 0.5425,-0.0191 0.5425,-0.0191 0.5425,-0.019 0.5425,-0.0189 0.5425,-0.0189 0.5425,-0.0188 0.5425,-0.0187 0.5425,-0.0186 0.5425,-0.0186 0.5425,-0.0185 0.5425,-0.0184 0.5425,-0.0183 0.5425,-0.0183 0.5425,-0.0182 0.5425,-0.0181 0.5425,-0.018 0.5425,-0.018 0.5425,-0.0179 0.5425,-0.0178 0.5425,-0.0178 0.5425,-0.0177 0.5425,-0.0176 0.5425,-0.0176 0.5425,-0.0175 0.5425,-0.0174 0.5425,-0.0173 0.5425,-0.0173 0.5425,-0.0172 0.5426,-0.0172 0.5424,-0.017 0.5425,-0.017 0.5425,-0.017 0.5425,-0.0168 0.5425,-0.0168 0.5425,-0.0168 0.5425,-0.0167 0.5425,-0.0166 0.5425,-0.0165 0.5425,-0.0165 0.5425,-0.0164 0.5425,-0.0164 0.5425,-0.0163 0.5425,-0.0162 0.5425,-0.0161 0.5425,-0.0162 0.5425,-0.016 0.5424,-0.016 0.5426,-0.0159 0.5425,-0.0158 0.5425,-0.0158 0.5425,-0.0157 0.5425,-0.0157 0.5425,-0.0156 0.5425,-0.0155 0.5425,-0.0155 0.5425,-0.0154 0.5426,-0.0154 0.5424,-0.0153 0.5425,-0.0153 0.5425,-0.0151 0.5425,-0.0152 0.5425,-0.015 0.5425,-0.015 0.5425,-0.015 0.5425,-0.0149 0.5425,-0.0148 0.5425,-0.0148 0.5425,-0.0147 0.5425,-0.0147 0.5425,-0.0146 0.5425,-0.0145 0.5425,-0.0145 0.5425,-0.0144 0.5425,-0.0144 0.5424,-0.0143 0.5426,-0.0143 0.5425,-0.0142 0.5425,-0.0142 0.5425,-0.0141 0.5425,-0.014 0.5425,-0.0141 0.5425,-0.0139 0.5425,-0.0139 0.5425,-0.0138 0.5426,-0.0138 0.5424,-0.0137 0.5425,-0.0137 0.5425,-0.0137 0.5425,-0.0135 0.5425,-0.0136 0.5425,-0.0134 0.5425,-0.0134 0.5425,-0.0134 0.5425,-0.0133 0.5425,-0.0133 0.5425,-0.0132 0.5425,-0.0132 0.5425,-0.0131 0.5425,-0.013 0.5425,-0.013 0.5425,-0.013 0.5425,-0.0129 0.5424,-0.0129 0.5426,-0.0128 0.5425,-0.0128 0.5425,-0.0127 0.5425,-0.0127 0.5425,-0.0126 0.5425,-0.0126 0.5425,-0.0125 0.5425,-0.0125 0.5425,-0.0124 0.5425,-0.0124 0.5425,-0.0124 0.5425,-0.0122 0.5425,-0.0123 0.5425,-0.0122 0.5425,-0.0121 0.5425,-0.0121 0.5425,-0.0121 0.5425,-0.012 0.5425,-0.012 0.5425,-0.0119 0.5425,-0.0119 0.5425,-0.0119 0.5425,-0.0117 0.5425,-0.0118 0.5425,-0.0117 0.5425,-0.0117 0.5425,-0.0116 0.5425,-0.0115 0.5425,-0.0116 0.5425,-0.0115 0.5425,-0.0114 0.5425,-0.0114 0.5425,-0.0113 0.5425,-0.0114 0.5425,-0.0112 0.5425,-0.0113 0.5425,-0.0112 0.5425,-0.0111 0.5425,-0.0111 0.5425,-0.0111 0.5425,-0.011 0.5425,-0.011 0.5425,-0.0109 0.5425,-0.0109 0.5425,-0.0109 0.5425,-0.0108 0.5425,-0.0107 0.5425,-0.0108 0.5425,-0.0107 0.5425,-0.0106 0.5426,-0.0107 0.5424,-0.0106 0.5425,-0.0105 0.5425,-0.0105 0.5425,-0.0104 0.5425,-0.0105 0.5425,-0.0104 0.5425,-0.0103 0.5425,-0.0103 0.5425,-0.0103 0.5425,-0.0102 0.5425,-0.0102 0.5425,-0.0102 0.5425,-0.0101 0.5425,-0.0101 0.5425,-0.01 0.5425,-0.01 0.5425,-0.01 0.5424,-0.01 0.5426,-0.01 0.5425,-0.01 0.5425,-0.01 0.5425,-0.01 0.5425,-0.01 0.5425,-0.01 0.5425,-0.01 0.5425,-0.01 0.5425,-0.01 0.5426,-0.01 0.5424,-0.01 0.5425,-0.009 0.5425,-0.009 0.5425,-0.01 0.5425,-0.009 0.5425,-0.009 0.5425,-0.009 0.5425,-0.009 0.5425,-0.009 0.5425,-0.009 0.5425,-0.009 0.5425,-0.009 0.5425,-0.009 0.5425,-0.009 0.5425,-0.009 0.5425,-0.009 0.5425,-0.009 0.5424,-0.009 0.5426,-0.009 0.5425,-0.009 0.5425,-0.009 0.5425,-0.009 0.5425,-0.009 0.5425,-0.009 0.5425,-0.009 0.5425,-0.009 0.5425,-0.009 0.5426,-0.009 0.5424,-0.009 0.5425,-0.008 0.5425,-0.009 0.5425,-0.009 0.5425,-0.008 0.5425,-0.008 0.5425,-0.009 0.5425,-0.008 0.5425,-0.008 0.5425,-0.008 0.5425,-0.008 0.5425,-0.008 0.5425,-0.008 0.5425,-0.008 0.5425,-0.008 0.5425,-0.008 0.5425,-0.008 0.5424,-0.008 0.5426,-0.008 0.5425,-0.008 0.5425,-0.008 0.5425,-0.008 0.5425,-0.008 0.5425,-0.008 0.5425,-0.008 0.5425,-0.008 0.5425,-0.008 0.5425,-0.008 0.5425,-0.008 0.5425,-0.008 0.5425,-0.008 0.5425,-0.008 0.5425,-0.008 0.5425,-0.008 0.5425,-0.008 0.5425,-0.008 0.5425,-0.008 0.5425,-0.007 0.5425,-0.007 0.5425,-0.007 0.5425,-0.008 0.5425,-0.007 0.5425,-0.007 0.5425,-0.007 0.5425,-0.007 0.5425,-0.007 0.5425,-0.007 0.5425,-0.007 0.5425,-0.007 0.5425,-0.007 0.5425,-0.007 0.5425,-0.007 0.5425,-0.007 0.5425,-0.007 0.5425,-0.007 0.5425,-0.007 0.5425,-0.007 0.5425,-0.007 0.5425,-0.007 0.5425,-0.007 0.5425,-0.007 0.5425,-0.007 0.5425,-0.007 0.5425,-0.007 0.5425,-0.007 0.5425,-0.007 0.5425,-0.007 0.5425,-0.007 0.5426,-0.007 0.5424,-0.007 0.5425,-0.007 0.5425,-0.007 0.5425,-0.007 0.5425,-0.007 0.5425,-0.007 0.5425,-0.007 0.5425,-0.007 0.5425,-0.007 0.5425,-0.007 0.5425,-0.007 0.5425,-0.006 0.5425,-0.007 0.5425,-0.006 0.5425,-0.006 0.5425,-0.006 0.5425,-0.006 0.5424,-0.006 0.5426,-0.006 0.5425,-0.006 0.5425,-0.006 0.5425,-0.006 0.5425,-0.006 0.5425,-0.006 0.5425,-0.006 0.5425,-0.006 0.5425,-0.006 0.5426,-0.006 0.5424,-0.006 0.5425,-0.006 0.5425,-0.006 0.5425,-0.006 0.5425,-0.006 0.5425,-0.006 0.5425,-0.006 0.5425,-0.006 0.5425,-0.006"
         style="fill:none;fill-rule:evenodd"
         id="path6713"
         inkscape:connector-curvature="0" />
    </g>
  </g>
</svg>
